<svg width="109" height="126" viewBox="0 0 109 126" fill="none" xmlns="http://www.w3.org/2000/svg">
<path d="M19.552 111.556C8.75372 103.869 6.23145 88.8839 13.9183 78.0856L55.1507 20.1639C62.8375 9.36563 77.8227 6.84335 88.621 14.5302C99.4193 22.2171 101.942 37.2023 94.2546 48.0005L53.0223 105.922C45.3354 116.721 30.3502 119.243 19.552 111.556Z" fill="#636AB6" fill-opacity="0.21"/>
<path d="M14.3257 78.3756L55.5579 20.4539C63.0847 9.88063 77.7577 7.41091 88.331 14.9377C98.9043 22.4644 101.374 37.1374 93.8472 47.7107L52.615 105.632C45.0882 116.206 30.4152 118.675 19.8419 111.149C9.26865 103.622 6.79893 88.9489 14.3257 78.3756Z" stroke="white" stroke-opacity="0.05"/>
<circle cx="35.2387" cy="89.5198" r="5" transform="rotate(84.9354 35.2387 89.5198)" fill="#C883FB"/>
<path d="M48.4646 81.2866L38.7538 74.3738L41.1941 70.9457C41.6519 70.3027 42.1756 69.8244 42.7654 69.511C43.3551 69.1976 43.9718 69.067 44.6154 69.1193C45.2652 69.1629 45.8943 69.4012 46.5025 69.8342C47.189 70.3229 47.6475 70.9112 47.878 71.599C48.1085 72.2868 48.1177 73.0004 47.9056 73.7398L53.4474 74.287L52.3896 75.7729L46.4906 75.1482L47.5891 74.6535L45.659 77.3647L49.3739 80.0092L48.4646 81.2866ZM44.4859 76.5296L46.0448 74.3398C46.317 73.9574 46.4813 73.5703 46.5377 73.1784C46.5941 72.7865 46.5389 72.4133 46.3722 72.0589C46.2117 71.6959 45.9489 71.3845 45.5839 71.1247C45.2103 70.8587 44.83 70.7123 44.4431 70.6857C44.0536 70.6441 43.683 70.7142 43.3311 70.8958C42.9793 71.0774 42.6673 71.3594 42.3951 71.7417L40.8362 73.9315L44.4859 76.5296ZM56.556 70.2512C56.0735 70.929 55.4828 71.4185 54.7839 71.7197C54.0851 72.0209 53.3493 72.1256 52.5767 72.0338C51.7953 71.9359 51.0571 71.6395 50.3619 71.1446C49.658 70.6435 49.1375 70.0504 48.8004 69.3653C48.4694 68.6714 48.33 67.9568 48.3822 67.2214C48.4318 66.4711 48.6855 65.7745 49.1432 65.1314C49.5144 64.61 49.9378 64.2175 50.4136 63.9539C50.8868 63.6754 51.3831 63.5115 51.9026 63.4623C52.4196 63.3983 52.9349 63.4377 53.4484 63.5807C53.9595 63.7089 54.4323 63.9276 54.8668 64.2369C54.9624 64.3049 55.0648 64.391 55.1741 64.4949C55.2809 64.584 55.3802 64.6744 55.4721 64.766L51.3708 70.5273L50.3281 69.785L53.9283 64.7276L53.9893 65.6351C53.5931 65.2353 53.1581 64.9911 52.6842 64.9026C52.2104 64.814 51.7548 64.8563 51.3174 65.0294C50.8799 65.2024 50.5159 65.4932 50.2251 65.9016C49.9344 66.31 49.7727 66.7579 49.74 67.2453C49.7073 67.7326 49.8184 68.2111 50.0733 68.6806C50.3258 69.1353 50.7294 69.5339 51.2842 69.8765C51.7722 70.2762 52.2797 70.5197 52.8069 70.6069C53.3315 70.6792 53.8292 70.6145 54.3001 70.4129C54.7685 70.1964 55.1542 69.8752 55.4573 69.4494C55.7914 68.9802 55.9642 68.5075 55.9758 68.0313C55.9875 67.5551 55.895 67.0965 55.6983 66.6554L56.9435 66.0098C57.166 66.3777 57.3068 66.8053 57.3659 67.2925C57.4225 67.7649 57.3867 68.2566 57.2585 68.7677C57.1366 69.27 56.9024 69.7645 56.556 70.2512ZM60.9486 63.7495L52.2063 61.1596L53.1621 59.817L60.4047 62.0857L60.0576 62.5457L55.5282 56.4932L56.3447 55.3461L63.5465 57.6446L63.2255 58.1232L58.7201 52.0092L59.6666 50.6797L64.9757 58.0924L64.1498 59.2525L56.9666 56.9279L57.2264 56.563L61.7744 62.5894L60.9486 63.7495ZM67.464 54.5969L60.4383 49.5956L61.2827 48.4094L62.5731 49.3281L62.2979 49.3285C62.0157 48.8788 61.8996 48.4165 61.9497 47.9415C61.9911 47.4603 62.185 46.9764 62.5314 46.4898L62.8376 46.0597L63.9846 46.8762L63.5485 47.4888C63.1959 47.9842 63.0678 48.4952 63.1641 49.0221C63.2517 49.5427 63.578 50.0041 64.1428 50.4062L68.3269 53.3847L67.464 54.5969ZM70.708 50.0399L63.6823 45.0386L64.5452 43.8263L71.5709 48.8277L70.708 50.0399ZM62.5613 44.2406L60.9972 43.1271L61.8601 41.9149L63.4243 43.0284L62.5613 44.2406ZM75.0202 44.1478C74.5315 44.8343 73.9586 45.2252 73.3016 45.3205C72.6508 45.4071 71.9691 45.1967 71.2565 44.6895L67.5546 42.0543L66.6453 43.3317L65.4852 42.5059L65.6708 42.2452C65.8935 41.9323 65.9742 41.6166 65.9129 41.2981C65.8517 40.9795 65.6646 40.7089 65.3518 40.4862L64.7783 40.0779L65.6412 38.8657L67.2575 40.0162L68.3802 38.4391L69.5403 39.2649L68.4176 40.8421L72.0803 43.4494C72.3149 43.6165 72.5439 43.7271 72.7672 43.7813C72.9967 43.8268 73.2254 43.7997 73.4534 43.7002C73.6727 43.5944 73.8844 43.3982 74.0885 43.1114C74.1318 43.0506 74.1801 42.9736 74.2332 42.8805C74.2926 42.7788 74.3458 42.6857 74.3928 42.6013L75.4616 43.3622C75.4073 43.4937 75.3349 43.6321 75.2447 43.7773C75.1631 43.9287 75.0882 44.0522 75.0202 44.1478ZM78.9105 38.8483C78.428 39.5262 77.8373 40.0157 77.1385 40.3168C76.4396 40.618 75.7038 40.7228 74.9312 40.631C74.1498 40.5331 73.4116 40.2367 72.7164 39.7418C72.0125 39.2407 71.492 38.6476 71.1549 37.9624C70.8239 37.2686 70.6845 36.554 70.7367 35.8186C70.7863 35.0683 71.04 34.3717 71.4978 33.7286C71.8689 33.2072 72.2924 32.8147 72.7681 32.5511C73.2413 32.2726 73.7377 32.1087 74.2571 32.0595C74.7741 31.9954 75.2894 32.0349 75.8029 32.1779C76.314 32.3061 76.7868 32.5248 77.2213 32.8341C77.3169 32.9021 77.4193 32.9881 77.5286 33.0921C77.6354 33.1812 77.7347 33.2716 77.8266 33.3632L73.7254 39.1245L72.6826 38.3822L76.2828 33.3248L76.3438 34.2323C75.9476 33.8324 75.5126 33.5882 75.0388 33.4997C74.565 33.4112 74.1093 33.4535 73.6719 33.6265C73.2345 33.7996 72.8704 34.0903 72.5796 34.4988C72.2889 34.9072 72.1272 35.3551 72.0945 35.8424C72.0618 36.3298 72.1729 36.8082 72.4279 37.2778C72.6803 37.7325 73.0839 38.1311 73.6388 38.4737C74.1267 38.8734 74.6343 39.1169 75.1614 39.204C75.686 39.2764 76.1838 39.2117 76.6546 39.0101C77.123 38.7936 77.5087 38.4724 77.8118 38.0466C78.1459 37.5774 78.3187 37.1047 78.3303 36.6285C78.342 36.1523 78.2495 35.6937 78.0529 35.2526L79.298 34.607C79.5205 34.9749 79.6614 35.4025 79.7204 35.8897C79.777 36.362 79.7412 36.8538 79.613 37.3648C79.4911 37.8672 79.2569 38.3617 78.9105 38.8483Z" fill="#D5CCFF"/>
</svg>
