<svg width="109" height="100" viewBox="0 0 109 100" fill="none" xmlns="http://www.w3.org/2000/svg">
<path d="M14.863 19.0258C6.65439 29.5334 8.51813 44.706 19.0258 52.9146L60.2483 85.1177C70.7559 93.3263 85.9284 91.4626 94.137 80.9549C102.346 70.4473 100.482 55.2748 89.9743 47.0662L48.7518 14.863C38.2441 6.65442 23.0716 8.51815 14.863 19.0258Z" fill="#636AB6" fill-opacity="0.21"/>
<path d="M19.3354 52.5182L60.5579 84.7213C70.8466 92.7589 85.7031 90.934 93.7407 80.6453C101.778 70.3566 99.9534 55.5001 89.6646 47.4625L48.4421 15.2594C38.1534 7.2218 23.297 9.04671 15.2594 19.3354C7.22177 29.6242 9.04668 44.4806 19.3354 52.5182Z" stroke="white" stroke-opacity="0.05"/>
<path fill-rule="evenodd" clip-rule="evenodd" d="M36.7748 47.6322L29.5043 41.9524C27.972 40.7553 27.7002 38.5427 28.8972 37.0103C30.0943 35.4779 32.307 35.2062 33.8394 36.4032L41.1098 42.083C42.1098 42.0658 43.122 42.3783 43.9715 43.042C45.9417 44.5811 46.2912 47.426 44.7521 49.3961C43.2129 51.3663 40.3681 51.7158 38.3979 50.1767C37.5484 49.513 37.0002 48.6066 36.7748 47.6322ZM36.8914 45.1702C37.0505 44.6956 37.2917 44.2395 37.6174 43.8225C37.9431 43.4056 38.3273 43.0612 38.7493 42.792L32.6008 37.9887C31.944 37.4757 30.9958 37.5922 30.4827 38.2489C29.9697 38.9056 30.0862 39.8539 30.7429 40.3669L36.8914 45.1702Z" fill="url(#paint0_linear_2186_2514)"/>
<path fill-rule="evenodd" clip-rule="evenodd" d="M36.49 34.6443C37.3395 35.308 38.3517 35.6205 39.3517 35.6033L46.6221 41.2831C48.1545 42.4801 50.3671 42.2083 51.5642 40.676C52.7613 39.1436 52.4895 36.931 50.9572 35.7339L43.6867 30.0542C43.4613 29.0797 42.9131 28.1733 42.0636 27.5096C40.0934 25.9705 37.2486 26.32 35.7095 28.2902C34.1703 30.2604 34.5198 33.1052 36.49 34.6443ZM42.8441 33.8638C42.5184 34.2807 42.1342 34.6251 41.7122 34.8943L47.8607 39.6976C48.5174 40.2106 49.4657 40.0941 49.9788 39.4374C50.4918 38.7807 50.3753 37.8324 49.7186 37.3193L43.5701 32.5161C43.411 32.9907 43.1698 33.4468 42.8441 33.8638Z" fill="url(#paint1_linear_2186_2514)"/>
<path d="M36.7996 34.2479C37.555 34.8381 38.4538 35.1153 39.3427 35.1002L39.5208 35.0972L46.9318 40.8867C48.2452 41.9128 50.1418 41.6798 51.1679 40.3664C52.194 39.0529 51.961 37.1563 50.6475 36.1303L43.2365 30.3407L43.1963 30.1672C42.9959 29.3011 42.5094 28.4961 41.7539 27.906C40.0027 26.5379 37.4739 26.8485 36.1058 28.5998C34.7377 30.3511 35.0483 32.8798 36.7996 34.2479ZM41.4418 34.47C41.8163 34.231 42.1577 33.9254 42.4477 33.5541C42.7378 33.1829 42.9517 32.7776 43.0929 32.3565L43.3194 31.682L50.0283 36.923C50.9039 37.6071 51.0592 38.8714 50.3751 39.7471C49.6911 40.6227 48.4267 40.778 47.5511 40.094L40.8422 34.853L41.4418 34.47ZM38.7076 49.7803C40.4588 51.1484 42.9876 50.8378 44.3557 49.0865C45.7238 47.3352 45.4132 44.8065 43.6619 43.4384C42.9065 42.8482 42.0078 42.571 41.1189 42.5862L40.9408 42.5891L33.5297 36.7996C32.2163 35.7735 30.3197 36.0065 29.2936 37.32C28.2675 38.6334 28.5005 40.53 29.814 41.5561L37.225 47.3456L37.2652 47.5191C37.4656 48.3853 37.9521 49.1902 38.7076 49.7803ZM30.4333 40.7633C29.5576 40.0793 29.4023 38.8149 30.0864 37.9392C30.7704 37.0636 32.0348 36.9083 32.9104 37.5924L39.6193 42.8333L39.0197 43.2163C38.6452 43.4553 38.3038 43.7609 38.0138 44.1322C37.7238 44.5034 37.5098 44.9087 37.3686 45.3298L37.1421 46.0043L30.4333 40.7633Z" stroke="white" stroke-opacity="0.2"/>
<path fill-rule="evenodd" clip-rule="evenodd" d="M77.0498 54.2646C73.2875 49.4486 66.3334 48.5944 61.5174 52.3567C56.7014 56.1189 55.8472 63.073 59.6095 67.889C63.3718 72.705 70.3258 73.5592 75.1418 69.797C79.9578 66.0347 80.812 59.0806 77.0498 54.2646ZM65.2614 57.5526L73.4824 57.0514L69.5187 60.1478L71.983 63.3023C72.2882 63.693 72.4408 63.8884 72.4427 64.0584C72.4444 64.2065 72.3808 64.3477 72.2687 64.4446C72.1401 64.5558 71.8927 64.5708 71.3978 64.601L63.1768 65.1022L67.1405 62.0057L64.6762 58.8513C64.371 58.4605 64.2184 58.2652 64.2165 58.0952C64.2148 57.9471 64.2784 57.8058 64.3905 57.709C64.5191 57.5978 64.7665 57.5827 65.2614 57.5526Z" fill="url(#paint2_linear_2186_2514)"/>
<path d="M76.6534 54.5742C80.2447 59.1713 79.4293 65.8093 74.8322 69.4006C70.2351 72.9918 63.5971 72.1765 60.0058 67.5794C56.4146 62.9823 57.23 56.3443 61.8271 52.753C66.4242 49.1618 73.0621 49.9772 76.6534 54.5742ZM73.4517 56.5493L65.2304 57.0505C64.9931 57.0649 64.7801 57.0776 64.6122 57.1033C64.4499 57.1282 64.2372 57.1772 64.0617 57.3289C63.8377 57.5226 63.7102 57.8048 63.7135 58.1008C63.7161 58.333 63.8208 58.525 63.9097 58.6631C64.0016 58.8059 64.1334 58.9734 64.2797 59.1607L66.4345 61.919L61.5913 65.7025L63.2075 65.6043L71.4289 65.1031C71.6661 65.0887 71.8792 65.076 72.0471 65.0503C72.2094 65.0254 72.422 64.9764 72.5976 64.8247C72.8215 64.631 72.9491 64.3488 72.9457 64.0528C72.9431 63.8207 72.8385 63.6286 72.7496 63.4905C72.6576 63.3477 72.5258 63.1802 72.3796 62.9929L70.2247 60.2346L75.0679 56.4511L73.4517 56.5493Z" stroke="white" stroke-opacity="0.19"/>
<defs>
<linearGradient id="paint0_linear_2186_2514" x1="20.429" y1="42.5931" x2="58.3661" y2="32.3334" gradientUnits="userSpaceOnUse">
<stop stop-color="#F5F1FF"/>
<stop offset="1" stop-color="#6633EE"/>
</linearGradient>
<linearGradient id="paint1_linear_2186_2514" x1="20.429" y1="42.5931" x2="58.3661" y2="32.3334" gradientUnits="userSpaceOnUse">
<stop stop-color="#F5F1FF"/>
<stop offset="1" stop-color="#6633EE"/>
</linearGradient>
<linearGradient id="paint2_linear_2186_2514" x1="69.4492" y1="52.6528" x2="81.9257" y2="77.8988" gradientUnits="userSpaceOnUse">
<stop stop-color="#FFB366"/>
<stop offset="0.489583" stop-color="#E9766F"/>
<stop offset="1" stop-color="#C04350"/>
</linearGradient>
</defs>
</svg>
