<svg width="368" height="368" viewBox="0 0 368 368" fill="none" xmlns="http://www.w3.org/2000/svg">
<g style="mix-blend-mode:plus-lighter" opacity="0.35" clip-path="url(#clip0_2186_2591)">
<mask id="mask0_2186_2591" style="mask-type:alpha" maskUnits="userSpaceOnUse" x="0" y="184" width="368" height="184">
<path d="M368 184C368 208.163 363.241 232.09 353.994 254.414C344.747 276.738 331.194 297.022 314.108 314.108C297.022 331.194 276.738 344.747 254.414 353.994C232.09 363.241 208.163 368 184 368C159.837 368 135.91 363.241 113.586 353.994C91.2623 344.747 70.9783 331.194 53.8923 314.108C36.8064 297.022 23.253 276.738 14.0062 254.414C4.7593 232.09 -2.11242e-06 208.163 0 184L184 184H368Z" fill="url(#paint0_linear_2186_2591)"/>
</mask>
<g mask="url(#mask0_2186_2591)">
<mask id="mask1_2186_2591" style="mask-type:alpha" maskUnits="userSpaceOnUse" x="0" y="184" width="368" height="184">
<path d="M368 184C368 208.163 363.241 232.09 353.994 254.414C344.747 276.738 331.194 297.022 314.108 314.108C297.022 331.194 276.738 344.747 254.414 353.994C232.09 363.241 208.163 368 184 368C159.837 368 135.91 363.241 113.586 353.994C91.2623 344.747 70.9783 331.194 53.8923 314.108C36.8064 297.022 23.253 276.738 14.0062 254.414C4.7593 232.09 -2.11242e-06 208.163 0 184L184 184H368Z" fill="url(#paint1_radial_2186_2591)"/>
<path d="M368 184C368 208.163 363.241 232.09 353.994 254.414C344.747 276.738 331.194 297.022 314.108 314.108C297.022 331.194 276.738 344.747 254.414 353.994C232.09 363.241 208.163 368 184 368C159.837 368 135.91 363.241 113.586 353.994C91.2623 344.747 70.9783 331.194 53.8923 314.108C36.8064 297.022 23.253 276.738 14.0062 254.414C4.7593 232.09 -2.11242e-06 208.163 0 184L184 184H368Z" fill="url(#paint2_radial_2186_2591)"/>
</mask>
<g mask="url(#mask1_2186_2591)">
<path d="M149.424 360.705L149.354 360.601L150.888 352.548L150.992 352.478L150.923 352.373L150.818 352.443L148.238 351.955L148.169 351.851L148.395 350.648L148.5 350.578L155.176 351.851L155.245 351.955L155.019 353.158L154.914 353.228L152.335 352.739L152.265 352.635L152.16 352.705L152.23 352.809L151.219 358.126L151.114 358.195L151.184 358.3L151.289 358.23L153.171 358.596L153.241 358.701L153.014 359.903L152.91 359.973L151.027 359.607L150.958 359.503L150.853 359.572L150.923 359.677L150.696 360.88L150.592 360.949L149.389 360.723L149.424 360.705Z" fill="#ACA0E4"/>
<path d="M137.675 356.609L137.605 356.504L139.244 349.898L139.348 349.829L140.534 350.125L140.603 350.23L139.645 354.134L139.54 354.204L139.61 354.308L139.714 354.256L140.9 354.552L140.969 354.657L140.673 355.842L140.568 355.912L139.383 355.616L139.313 355.511L139.209 355.581L139.279 355.685L138.982 356.871L138.878 356.94L137.692 356.644L137.675 356.609ZM138.686 358.282L138.616 358.178L138.913 356.993L139.017 356.923L142.922 357.882L142.974 357.986L142.678 359.171L142.573 359.241L138.668 358.282H138.686ZM140.69 350.16L140.621 350.055L140.917 348.87L141.022 348.818L144.926 349.776L144.996 349.881L144.699 351.066L144.595 351.136L140.69 350.177V350.16ZM141.039 354.57L140.969 354.465L141.266 353.28L141.37 353.21L142.555 353.506L142.625 353.611L142.329 354.796L142.224 354.866L141.039 354.57ZM143.078 357.934L143.009 357.829L143.967 353.925L144.072 353.855L144.002 353.75L143.898 353.82L142.712 353.524L142.643 353.419L142.939 352.234L143.044 352.164L144.229 352.461L144.299 352.565L144.403 352.495L144.333 352.391L144.63 351.206L144.734 351.136L145.92 351.432L145.989 351.537L144.351 358.143L144.246 358.213L143.061 357.916L143.078 357.934Z" fill="#ACA0E4"/>
<path d="M128.489 353.872L128.437 353.768L130.424 347.266L130.529 347.214L131.697 347.58L131.749 347.684L130.581 351.519L130.476 351.571L130.529 351.676L130.633 351.624L131.801 351.99L131.853 352.094L131.487 353.262L131.383 353.315L130.215 352.949L130.163 352.844L130.058 352.896L130.11 353.001L129.744 354.169L129.64 354.221L128.472 353.855L128.489 353.872ZM129.413 355.615L129.361 355.511L129.727 354.343L129.831 354.291L133.666 355.459L133.718 355.563L133.352 356.731L133.248 356.783L129.413 355.615ZM131.871 347.615L131.819 347.51L132.185 346.342L132.289 346.29L136.124 347.458L136.176 347.562L135.81 348.73L135.706 348.783L131.871 347.615ZM131.975 352.025L131.923 351.92L132.289 350.752L132.394 350.7L133.562 351.066L133.614 351.171L133.248 352.338L133.143 352.391L131.975 352.025ZM133.823 355.511L133.771 355.406L134.939 351.571L135.043 351.519L134.991 351.415L134.886 351.467L133.718 351.101L133.666 350.996L134.032 349.828L134.137 349.776L135.305 350.142L135.357 350.247L135.462 350.194L135.409 350.09L135.775 348.922L135.88 348.87L137.048 349.236L137.1 349.34L135.113 355.842L135.008 355.894L133.84 355.528L133.823 355.511Z" fill="#ACA0E4"/>
<path d="M119.478 350.648L119.426 350.543L121.762 344.146L121.866 344.094L123.017 344.512L123.069 344.617L121.692 348.382L121.587 348.434L121.64 348.539L121.744 348.486L122.895 348.905L122.947 349.009L122.529 350.16L122.424 350.212L121.274 349.794L121.221 349.689L121.117 349.741L121.169 349.846L120.751 350.996L120.646 351.049L119.496 350.63L119.478 350.648ZM120.297 352.443L120.245 352.339L120.663 351.188L120.768 351.136L124.533 352.513L124.585 352.617L124.167 353.768L124.062 353.82L120.297 352.443ZM123.051 348.992L122.999 348.887L123.417 347.737L123.522 347.685L124.672 348.103L124.725 348.208L124.306 349.358L124.202 349.41L123.051 348.992ZM123.173 344.582L123.121 344.477L123.54 343.327L123.644 343.275L127.409 344.652L127.461 344.756L127.043 345.907L126.938 345.959L123.173 344.582ZM124.707 352.565L124.655 352.461L126.032 348.696L126.137 348.643L126.084 348.539L125.98 348.591L124.829 348.173L124.777 348.068L125.195 346.918L125.3 346.865L126.45 347.284L126.503 347.388L126.607 347.336L126.555 347.231L126.973 346.081L127.078 346.029L128.228 346.447L128.281 346.552L125.945 352.949L125.84 353.001L124.69 352.583L124.707 352.565Z" fill="#ACA0E4"/>
<path d="M112.732 349.358L112.697 349.253L115.922 341.723L116.026 341.671L115.974 341.566L115.869 341.619L113.464 340.59L113.412 340.486L113.9 339.353L114.004 339.318L120.262 342.002L120.314 342.107L119.826 343.24L119.722 343.292L117.316 342.264L117.264 342.159L117.159 342.211L117.212 342.316L115.085 347.284L114.98 347.336L115.033 347.441L115.137 347.388L116.898 348.155L116.95 348.26L116.462 349.393L116.357 349.445L114.597 348.678L114.545 348.573L114.44 348.626L114.475 348.73L113.987 349.863L113.882 349.916L112.749 349.428L112.732 349.358Z" fill="#ACA0E4"/>
<path d="M95.4763 340.765L95.4414 340.643L99.4679 333.496L99.5899 333.461L99.555 333.339L99.433 333.374L97.1496 332.084L97.1147 331.962L97.7074 330.899L97.8294 330.864L103.756 334.211L103.791 334.333L103.181 335.396L103.059 335.431L100.775 334.141L100.74 334.019L100.618 334.054L100.653 334.159L98.0037 338.882L97.8817 338.917L97.9165 339.039L98.0386 339.004L99.7119 339.945L99.7468 340.067L99.1367 341.131L99.0321 341.166L97.3588 340.224L97.3239 340.102L97.2019 340.137L97.2367 340.259L96.6441 341.322L96.5221 341.357L95.4588 340.747L95.4763 340.765Z" fill="#ACA0E4"/>
<path d="M87.2491 335.797V335.675L91.6242 328.755H91.7462L91.7113 328.616H91.5893L89.3756 327.239V327.117L90.0031 326.088H90.1252L95.8598 329.714V329.836L95.2323 330.864H95.1103L92.8966 329.487V329.365L92.7572 329.383V329.505L89.8811 334.071H89.7591L89.7765 334.211H89.8986L91.5196 335.222V335.344L90.8921 336.372H90.7701L89.149 335.361V335.239L89.0096 335.257V335.379L88.3821 336.407H88.2601L87.2317 335.78L87.2491 335.797Z" fill="#ACA0E4"/>
<path d="M79.2822 330.393V330.271L84.0233 323.596H84.1453L84.1279 323.456H84.0059L81.8794 321.957V321.835L82.5766 320.842H82.6986L88.2415 324.781V324.903L87.5443 325.896H87.4223L85.2958 324.397V324.275L85.1563 324.293V324.415L82.0362 328.825H81.9142L81.9317 328.964H82.0537L83.6224 330.062V330.184L82.9252 331.178H82.8032L81.2344 330.08V329.958L81.095 329.975V330.097L80.3978 331.091H80.2758L79.2822 330.393Z" fill="#ACA0E4"/>
<path d="M70.3053 321.73V321.608L74.5409 316.292H74.6629L75.6216 317.042V317.164L73.129 320.301H73.007V320.441H73.129L74.0877 321.19V321.312L73.3382 322.271H73.2162L72.2575 321.521V321.399H72.118V321.521L71.3685 322.48H71.2465L70.2878 321.73H70.3053ZM70.5319 323.7V323.578L71.2814 322.619H71.4034L74.5409 325.112V325.234L73.7914 326.193H73.6694L70.5319 323.7ZM74.2271 321.295V321.173L74.9767 320.214H75.0987L76.0574 320.964V321.086L75.3078 322.044H75.1858L74.2271 321.295ZM74.6629 325.217V325.095L77.1555 321.957H77.2775V321.818H77.1555L76.1968 321.068V320.946L76.9463 319.987H77.0683L78.027 320.737V320.859H78.1664V320.737L78.916 319.778H79.038L79.9966 320.528V320.65L75.761 325.966H75.639L74.6803 325.217H74.6629ZM75.7436 317.146V317.024L76.4931 316.066H76.6151L79.7526 318.558V318.68L79.0031 319.639H78.8811L75.7436 317.146Z" fill="#ACA0E4"/>
<path d="M64.293 318.349V318.227L69.7313 312.091H69.8533V311.969H69.7313L67.7791 310.226V310.104L68.5809 309.181H68.7029L73.7926 313.695V313.817L72.9908 314.741H72.8688L70.9166 312.998V312.876H70.7946V312.998L67.2039 317.042H67.0819V317.164H67.2039L68.6506 318.436V318.558L67.8488 319.482H67.7268L66.28 318.21V318.088H66.158V318.21L65.3562 319.133H65.2342L64.3104 318.332L64.293 318.349Z" fill="#ACA0E4"/>
<path d="M56.3103 308.797V308.675L61.1037 303.847H61.2257L62.0972 304.718V304.84L59.2735 307.699H59.1515V307.821H59.2735L60.145 308.692V308.814L59.2735 309.686H59.1515L58.2799 308.814V308.692H58.1579V308.814L57.2864 309.686H57.1644L56.2928 308.814L56.3103 308.797ZM56.3277 310.767V310.645L57.1992 309.773H57.3212L60.1799 312.597V312.719L59.3083 313.59H59.1863L56.3277 310.767ZM60.267 308.779V308.657L61.1385 307.786H61.2606L62.1321 308.657V308.779L61.2606 309.651H61.1385L60.267 308.779ZM60.2844 312.719V312.597L63.1082 309.738H63.2302V309.616H63.1082L62.2367 308.762V308.64L63.1082 307.769H63.2302L64.1017 308.64V308.762H64.2237V308.64L65.0953 307.769H65.2173L66.0888 308.64V308.762L61.2954 313.608H61.1734L60.3019 312.736L60.2844 312.719ZM62.2192 304.823V304.701L63.0908 303.829H63.2128L66.0714 306.653V306.775L65.1998 307.647H65.0778L62.2192 304.823Z" fill="#ACA0E4"/>
<path d="M50.6973 304.805V304.683L56.7805 299.175H56.9025V299.071H56.7805L55.02 297.119V296.996L55.9264 296.177H56.0484L60.6152 301.215V301.337L59.7089 302.156H59.5868L57.8264 300.204V300.082H57.7218V300.204L53.7127 303.847H53.5907V303.951H53.7127L55.0026 305.381V305.503L54.0962 306.322H53.9742L52.6843 304.893V304.771H52.5798V304.893L51.6734 305.712H51.5514L50.7321 304.805H50.6973Z" fill="#ACA0E4"/>
<path d="M43.5323 296.369V296.247L44.491 295.48H44.613L47.1579 298.6V298.722L46.1992 299.489H46.0772L43.5323 296.369ZM43.7241 294.4V294.278L49.0055 289.99H49.1276L49.8945 290.948V291.07L46.7744 293.615H46.6524V293.72H46.7744L47.5414 294.678V294.8L46.5827 295.567H46.4607L45.6937 294.609V294.487H45.5892V294.609L44.6305 295.393H44.5085L43.7241 294.434V294.4ZM47.2625 298.722V298.6L50.3826 296.055H50.5046V295.951H50.3826L49.6156 294.992V294.87L50.5743 294.086H50.6963L51.4632 295.044V295.166H51.5678V295.044L52.5265 294.278H52.6485L53.4329 295.236V295.358L48.1514 299.664H48.0294L47.2625 298.705V298.722ZM47.6634 294.8V294.678L48.6221 293.911H48.7441L49.5285 294.87V294.992L48.5698 295.759H48.4478L47.6634 294.8ZM50.0165 291.088V290.966L50.9752 290.181H51.0972L53.6421 293.301V293.423L52.6834 294.19H52.5614L50.0165 291.07V291.088Z" fill="#ACA0E4"/>
<path d="M32.4127 280.734V280.612L33.4586 279.95H33.5806L35.7768 283.349V283.471L34.731 284.133H34.609L32.4127 280.734ZM32.8136 278.817V278.695L38.5483 274.982H38.6703L39.3326 276.028V276.15L35.9337 278.346H35.8117L35.7942 278.433H35.9163L36.5786 279.479V279.601L35.5328 280.263H35.4108L34.7484 279.218V279.096L34.6613 279.078V279.2L33.6154 279.862H33.4934L32.8311 278.817H32.8136ZM35.864 283.488V283.366L39.2629 281.17H39.3849L39.4024 281.083H39.2804L38.618 280.037V279.915L39.6638 279.252H39.7858L40.4482 280.298V280.42L40.5354 280.438V280.316L41.5812 279.653H41.7032L42.3656 280.699V280.821L36.6309 284.534H36.5089L35.8465 283.488H35.864ZM36.6658 279.636V279.514L37.7116 278.852H37.8336L38.496 279.897V280.019L37.4501 280.682H37.3281L36.6658 279.636ZM39.4198 276.185V276.063L40.4656 275.4H40.5876L42.7839 278.799V278.921L41.7381 279.584H41.616L39.4198 276.202V276.185Z" fill="#ACA0E4"/>
<path d="M28.1415 273.657L28.1763 273.535L35.288 269.439L35.41 269.474L35.4448 269.352L35.3228 269.317L34.0155 267.051L34.0504 266.929L35.1137 266.319L35.2357 266.354L38.6346 272.245L38.5998 272.367L37.5365 272.978L37.4145 272.943L36.1072 270.677L36.1421 270.555L36.0201 270.52L35.9852 270.642L31.2964 273.344L31.1744 273.309L31.1395 273.431L31.2615 273.466L32.2202 275.139L32.1853 275.261L31.1221 275.871L31.0001 275.836L30.0414 274.163L30.0762 274.041L29.9542 274.006L29.9194 274.128L28.8561 274.738L28.7341 274.703L28.124 273.64L28.1415 273.657Z" fill="#ACA0E4"/>
<path d="M22.9655 263.948L23.0003 263.844L24.0984 263.286L24.203 263.321L26.0158 266.894L25.9809 266.999L24.8828 267.556L24.7782 267.522L22.9655 263.948ZM23.5755 262.066L23.6104 261.961L29.6762 258.876L29.7808 258.911L30.3386 260.009L30.3037 260.114L26.7304 261.926L26.6259 261.892L26.591 261.996L26.6956 262.031L27.2534 263.129L27.2185 263.234L26.1204 263.791L26.0158 263.757L25.458 262.659L25.4929 262.554L25.3883 262.519L25.3534 262.624L24.2553 263.181L24.1507 263.147L23.593 262.048L23.5755 262.066ZM26.103 267.051L26.1378 266.946L29.7111 265.134L29.8157 265.169L29.8505 265.064L29.7459 265.029L29.1882 263.931L29.223 263.826L30.3211 263.269L30.4257 263.303L30.9835 264.402L30.9486 264.506L31.0532 264.541L31.0881 264.436L32.1862 263.879L32.2908 263.914L32.8486 265.012L32.8137 265.116L26.7479 268.184L26.6433 268.149L26.0855 267.051H26.103ZM27.3231 263.286L27.3579 263.181L28.4561 262.624L28.5607 262.659L29.1184 263.757L29.0836 263.861L27.9854 264.419L27.8634 264.384L27.3057 263.286H27.3231ZM30.4257 260.166L30.4606 260.044L31.5587 259.486L31.6633 259.521L33.4761 263.094L33.4412 263.216L32.3431 263.774L32.2385 263.739L30.4257 260.166Z" fill="#ACA0E4"/>
<path d="M19.5132 256.471L19.5655 256.366L27.0606 253.054L27.1652 253.106L27.2 253.002L27.0955 252.967L26.0322 250.562L26.0671 250.457L27.1826 249.969L27.2872 250.004L30.0238 256.227L29.9889 256.331L28.8734 256.819L28.7688 256.784L27.7055 254.379L27.7578 254.274L27.6532 254.239L27.6184 254.344L22.6681 256.523L22.5635 256.488L22.5287 256.593L22.6332 256.627L23.4176 258.388L23.3828 258.493L22.2672 258.981L22.1626 258.946L21.3783 257.185L21.4131 257.081L21.3085 257.046L21.2737 257.15L20.1581 257.638L20.0535 257.604L19.5655 256.488L19.5132 256.471Z" fill="#ACA0E4"/>
<path d="M15.9059 247.581L15.9582 247.477L23.6276 244.583L23.7322 244.635L23.7845 244.531L23.6799 244.478L22.7561 242.021L22.8084 241.916L23.9588 241.48L24.0634 241.533L26.4688 247.895L26.4165 247.999L25.2661 248.435L25.1615 248.383L24.2377 245.925L24.29 245.821L24.1854 245.768L24.1331 245.873L19.0782 247.79L18.9737 247.738L18.9214 247.843L19.026 247.895L19.7057 249.69L19.6534 249.795L18.503 250.231L18.3985 250.178L17.7187 248.383L17.771 248.278L17.6664 248.226L17.6141 248.331L16.4637 248.766L16.3591 248.714L15.9233 247.564L15.9059 247.581Z" fill="#ACA0E4"/>
<path d="M10.1355 229.192L10.1878 229.087L18.1187 227.03L18.2233 227.083L18.293 226.978L18.1884 226.908L17.526 224.364L17.5783 224.259L18.7636 223.945L18.8682 223.997L20.5764 230.586L20.5241 230.691L19.3388 231.005L19.2342 230.952L18.5719 228.407L18.6416 228.303L18.537 228.233L18.4673 228.338L13.2381 229.697L13.1335 229.645L13.0813 229.75L13.1858 229.819L13.6739 231.684L13.6042 231.789L12.4189 232.103L12.3143 232.033L11.8263 230.168L11.896 230.063L11.7914 230.011L11.7391 230.116L10.5538 230.429L10.4492 230.377L10.1355 229.192Z" fill="#ACA0E4"/>
<path d="M7.7478 218.472L7.81753 218.367L9.02023 218.123L9.12482 218.193L9.92662 222.132L9.8569 222.237L8.65419 222.481L8.54961 222.411L7.7478 218.472ZM8.84593 216.816L8.91565 216.712L15.5915 215.369L15.6961 215.439L15.9402 216.642L15.8704 216.746L11.9311 217.548L11.8265 217.478L11.7568 217.583L11.8614 217.653L12.1054 218.855L12.0357 218.96L10.833 219.204L10.7284 219.134L10.4844 217.932L10.5541 217.827L10.4495 217.757L10.3798 217.862L9.17711 218.106L9.07252 218.036L8.8285 216.834L8.84593 216.816ZM9.94405 222.289L10.0138 222.185L13.9531 221.383L14.0577 221.453L14.1274 221.348L14.0228 221.278L13.7788 220.076L13.8485 219.971L15.0512 219.727L15.1558 219.797L15.3998 220.999L15.3301 221.104L15.4347 221.174L15.5044 221.069L16.7071 220.825L16.8117 220.895L17.0557 222.098L16.986 222.202L10.3101 223.544L10.2055 223.475L9.96148 222.272L9.94405 222.289ZM12.1229 218.995L12.1926 218.89L13.3953 218.646L13.4999 218.716L13.7439 219.919L13.6742 220.023L12.4715 220.267L12.3669 220.198L12.1229 218.995ZM15.9402 216.816L16.0099 216.712L17.2126 216.468L17.3172 216.537L18.119 220.477L18.0492 220.581L16.8465 220.825L16.742 220.755L15.9402 216.816Z" fill="#ACA0E4"/>
<path d="M6.19653 208.955L6.26626 208.868L7.48639 208.694L7.57355 208.763L8.14875 212.737L8.07903 212.825L6.85889 212.999L6.77174 212.929L6.19653 208.955ZM7.38181 207.369L7.45153 207.282L14.1797 206.306L14.2669 206.375L14.4412 207.595L14.3715 207.683L10.3973 208.258L10.3101 208.188L10.2404 208.275L10.3276 208.345L10.5019 209.565L10.4322 209.652L9.21202 209.827L9.12486 209.757L8.95056 208.537L9.02028 208.45L8.93313 208.38L8.86341 208.467L7.64327 208.641L7.55612 208.572L7.38181 207.351V207.369ZM8.18361 212.894L8.25334 212.807L12.2275 212.232L12.3147 212.302L12.3844 212.214L12.2972 212.145L12.1229 210.925L12.1926 210.837L13.4128 210.663L13.4999 210.733L13.6742 211.953L13.6045 212.04L13.6917 212.11L13.7614 212.023L14.9815 211.848L15.0687 211.918L15.243 213.138L15.1733 213.225L8.44507 214.202L8.35792 214.132L8.18361 212.912V212.894ZM10.5367 209.722L10.6065 209.635L11.8266 209.46L11.9137 209.53L12.0881 210.75L12.0183 210.837L10.7982 211.012L10.711 210.942L10.5367 209.722ZM14.476 207.735L14.5458 207.648L15.7659 207.473L15.8531 207.543L16.4283 211.517L16.3585 211.604L15.1384 211.779L15.0512 211.709L14.476 207.735Z" fill="#ACA0E4"/>
<path d="M5.16858 199.351L5.2383 199.264L6.45844 199.159L6.54559 199.229L6.91163 203.22L6.84191 203.307L5.62177 203.412L5.53462 203.342L5.16858 199.351ZM6.44101 197.834L6.51073 197.747L13.2912 197.12L13.3784 197.189L13.4829 198.409L13.4132 198.497L9.42163 198.863L9.33448 198.793L9.26476 198.88L9.35191 198.95L9.45649 200.17L9.38677 200.257L8.16663 200.362L8.07948 200.292L7.9749 199.072L8.04462 198.985L7.95746 198.915L7.88774 199.002L6.66761 199.107L6.58045 199.037L6.47587 197.817L6.44101 197.834ZM6.94649 203.395L7.01622 203.307L11.0078 202.941L11.095 203.011L11.1647 202.924L11.0775 202.854L10.9729 201.634L11.0427 201.547L12.2628 201.442L12.35 201.512L12.4545 202.732L12.3848 202.819L12.472 202.889L12.5417 202.802L13.7618 202.697L13.849 202.767L13.9536 203.987L13.8838 204.074L7.10337 204.702L7.01622 204.632L6.91163 203.412L6.94649 203.395ZM9.47392 200.362L9.54364 200.275L10.7638 200.17L10.8509 200.24L10.9555 201.46L10.8858 201.547L9.66566 201.652L9.5785 201.582L9.47392 200.362ZM13.5004 198.584L13.5701 198.497L14.7902 198.392L14.8774 198.462L15.2434 202.453L15.1737 202.541L13.9536 202.645L13.8664 202.575L13.5004 198.584Z" fill="#ACA0E4"/>
<path d="M4.7146 191.193L4.80175 191.106L12.9941 190.792L13.0813 190.879L13.1684 190.792L13.0813 190.705L12.9767 188.09L13.0638 188.003L14.284 187.951L14.3711 188.038L14.6326 194.836L14.5454 194.923L13.3253 194.976L13.2381 194.888L13.1335 192.274L13.2207 192.187L13.1335 192.1L13.0464 192.187L7.64293 192.396L7.55578 192.309L7.46862 192.396L7.55578 192.483L7.6255 194.4L7.53835 194.488L6.31821 194.54L6.23106 194.453L6.16133 192.535L6.24849 192.448L6.16133 192.361L6.07418 192.448L4.85404 192.5L4.76689 192.413L4.7146 191.193Z" fill="#ACA0E4"/>
<path d="M4.62778 181.572L4.71493 181.484L12.9073 181.624L12.9944 181.711L13.0816 181.624L12.9944 181.537L13.0293 178.922L13.1165 178.835H14.3366L14.4237 178.94L14.3192 185.737L14.232 185.825H13.0119L12.9247 185.72L12.9596 183.105L13.0467 183.018L12.9596 182.931L12.8724 183.018L7.46896 182.931L7.38181 182.844L7.29465 182.931L7.38181 183.018L7.34695 184.936L7.25979 185.023H6.03966L5.9525 184.918L5.98736 183.001L6.07452 182.914L5.98736 182.827L5.90021 182.914H4.6975L4.61035 182.809V181.589L4.62778 181.572Z" fill="#ACA0E4"/>
<path d="M354.633 184.587L354.546 184.674H353.326L353.238 184.604L353.169 180.595L353.256 180.508H354.476L354.563 180.578L354.633 184.587ZM361.553 180.299L361.466 180.386L357.457 180.456L357.369 180.369L357.282 180.456L357.369 180.543V181.763L357.3 181.85H356.08L355.992 181.781V180.561L356.062 180.473L355.975 180.386L355.888 180.473H354.668L354.581 180.404V179.183L354.65 179.096L361.448 178.992L361.535 179.079V180.299H361.553ZM361.64 185.877L361.553 185.964L354.755 186.069L354.668 185.981V184.761L354.737 184.674L358.746 184.604L358.834 184.692L358.921 184.604L358.834 184.517V183.297L358.903 183.21H360.123L360.211 183.28V184.5L360.141 184.587L360.228 184.674L360.315 184.587H361.535L361.623 184.657V185.877H361.64ZM358.799 183.14L358.712 183.227H357.491L357.404 183.158V181.938L357.474 181.85H358.694L358.781 181.92V183.14H358.799ZM363 184.465L362.912 184.552H361.692L361.605 184.482L361.535 180.473L361.623 180.386H362.843L362.93 180.456L363 184.465Z" fill="#ACA0E4"/>
<path d="M362.825 192.71L362.738 192.797L354.545 192.466L354.458 192.379L354.371 192.466L354.458 192.553L354.354 195.168L354.266 195.255L353.046 195.202L352.959 195.115L353.238 188.317L353.325 188.23L354.545 188.282L354.632 188.37L354.528 190.984L354.441 191.071L354.528 191.158L354.615 191.071L360.018 191.281L360.106 191.368L360.193 191.281L360.106 191.193L360.175 189.276L360.262 189.189L361.483 189.241L361.57 189.328L361.5 191.246L361.413 191.333L361.5 191.42L361.587 191.333L362.807 191.385L362.895 191.472L362.842 192.692L362.825 192.71Z" fill="#ACA0E4"/>
<path d="M353.693 202.924L353.605 202.994L352.385 202.872L352.316 202.785L352.682 198.793L352.769 198.723L353.989 198.845L354.059 198.933L353.693 202.924ZM360.49 204.963L360.403 205.033L353.623 204.406L353.553 204.319L353.675 203.098L353.762 203.029L357.754 203.395L357.824 203.482L357.911 203.412L357.841 203.325L357.963 202.105L358.05 202.035L359.27 202.157L359.34 202.244L359.218 203.464L359.131 203.534L359.201 203.621L359.288 203.552L360.508 203.674L360.578 203.761L360.456 204.981L360.49 204.963ZM361.013 199.403L360.926 199.473L356.935 199.107L356.865 199.02L356.778 199.089L356.848 199.177L356.725 200.397L356.638 200.466L355.418 200.344L355.348 200.257L355.47 199.037L355.558 198.967L355.488 198.88L355.401 198.95L354.181 198.828L354.111 198.741L354.233 197.521L354.32 197.451L361.101 198.078L361.17 198.166L361.048 199.386L361.013 199.403ZM357.98 201.931L357.893 202L356.673 201.878L356.603 201.791L356.725 200.571L356.813 200.501L358.033 200.623L358.103 200.71L357.98 201.931ZM362.007 203.708L361.92 203.778L360.7 203.656L360.63 203.569L360.996 199.577L361.083 199.508L362.303 199.63L362.373 199.717L362.007 203.708Z" fill="#ACA0E4"/>
<path d="M352.489 212.023L352.402 212.092L351.182 211.918L351.112 211.831L351.704 207.857L351.792 207.787L353.012 207.961L353.081 208.048L352.489 212.023ZM359.182 214.411L359.095 214.48L352.367 213.487L352.297 213.4L352.471 212.179L352.559 212.11L356.533 212.702L356.602 212.79L356.69 212.72L356.62 212.633L356.794 211.413L356.881 211.343L358.101 211.517L358.171 211.604L357.997 212.824L357.91 212.894L357.979 212.981L358.067 212.912L359.287 213.086L359.356 213.173L359.182 214.393V214.411ZM359.984 208.903L359.897 208.972L355.923 208.38L355.853 208.292L355.766 208.362L355.836 208.449L355.661 209.669L355.574 209.739L354.354 209.565L354.284 209.478L354.459 208.258L354.546 208.188L354.476 208.101L354.389 208.17L353.169 207.996L353.099 207.909L353.273 206.689L353.36 206.619L360.089 207.613L360.158 207.7L359.984 208.92V208.903ZM356.829 211.238L356.742 211.308L355.522 211.134L355.452 211.046L355.626 209.826L355.713 209.757L356.934 209.931L357.003 210.018L356.829 211.238ZM360.751 213.243L360.664 213.312L359.444 213.138L359.374 213.051L359.967 209.077L360.054 209.007L361.274 209.181L361.344 209.269L360.751 213.243Z" fill="#ACA0E4"/>
<path d="M359.27 221.313L359.165 221.383L351.13 219.744L351.06 219.64L350.956 219.709L351.025 219.814L350.503 222.376L350.398 222.446L349.195 222.202L349.125 222.097L350.485 215.422L350.59 215.352L351.792 215.596L351.862 215.7L351.339 218.263L351.235 218.332L351.304 218.437L351.409 218.367L356.708 219.448L356.777 219.553L356.882 219.483L356.812 219.378L357.196 217.496L357.3 217.426L358.503 217.67L358.573 217.775L358.189 219.657L358.085 219.727L358.155 219.831L358.259 219.762L359.462 220.006L359.532 220.11L359.287 221.313H359.27Z" fill="#ACA0E4"/>
<path d="M348.62 229.889L348.515 229.941L347.33 229.628L347.26 229.523L348.271 225.636L348.376 225.584L349.561 225.897L349.613 226.002L348.602 229.889H348.62ZM355.017 232.992L354.912 233.044L348.324 231.336L348.271 231.231L348.585 230.046L348.69 229.976L352.577 230.987L352.629 231.092L352.733 231.022L352.681 230.917L352.995 229.732L353.099 229.68L354.285 229.994L354.337 230.098L354.023 231.284L353.919 231.336L353.971 231.44L354.076 231.388L355.261 231.702L355.331 231.806L355.017 232.992ZM356.429 227.606L356.324 227.658L352.437 226.647L352.385 226.542L352.28 226.595L352.333 226.699L352.019 227.885L351.914 227.937L350.729 227.623L350.677 227.519L350.99 226.333L351.095 226.264L351.043 226.159L350.938 226.229L349.753 225.915L349.701 225.81L350.014 224.625L350.119 224.573L356.708 226.281L356.76 226.386L356.446 227.571L356.429 227.606ZM353.03 229.593L352.925 229.645L351.74 229.331L351.688 229.227L352.001 228.041L352.106 227.972L353.291 228.285L353.361 228.39L353.047 229.575L353.03 229.593ZM356.725 231.998L356.62 232.05L355.435 231.737L355.383 231.632L356.394 227.745L356.498 227.693L357.684 228.007L357.736 228.111L356.725 231.998Z" fill="#ACA0E4"/>
<path d="M345.953 238.709L345.848 238.761L344.681 238.395L344.628 238.291L345.848 234.473L345.953 234.421L347.121 234.787L347.173 234.892L345.953 238.709ZM352.176 242.16L352.071 242.212L345.587 240.138L345.535 240.034L345.901 238.866L346.005 238.813L349.84 240.034L349.892 240.138L349.997 240.086L349.945 239.981L350.311 238.813L350.415 238.761L351.583 239.127L351.635 239.232L351.269 240.4L351.165 240.452L351.217 240.556L351.322 240.504L352.489 240.87L352.542 240.975L352.176 242.143V242.16ZM353.866 236.844L353.762 236.896L349.927 235.676L349.875 235.571L349.77 235.624L349.823 235.728L349.457 236.896L349.352 236.948L348.184 236.582L348.132 236.478L348.498 235.31L348.602 235.258L348.55 235.153L348.446 235.205L347.278 234.839L347.225 234.735L347.591 233.567L347.696 233.515L354.18 235.589L354.233 235.693L353.866 236.861V236.844ZM350.363 238.657L350.258 238.709L349.091 238.343L349.038 238.238L349.404 237.07L349.509 237.018L350.677 237.384L350.729 237.489L350.363 238.657ZM353.936 241.254L353.832 241.306L352.664 240.94L352.611 240.835L353.832 237.018L353.936 236.966L355.104 237.332L355.156 237.436L353.936 241.271V241.254Z" fill="#ACA0E4"/>
<path d="M351.147 248.993L351.042 249.045L343.373 246.134L343.32 246.03L343.216 246.082L343.268 246.186L342.344 248.644L342.24 248.696L341.089 248.261L341.037 248.156L343.46 241.794L343.564 241.742L344.715 242.177L344.767 242.282L343.843 244.74L343.739 244.792L343.791 244.897L343.895 244.844L348.95 246.762L349.003 246.866L349.107 246.814L349.055 246.709L349.735 244.914L349.839 244.862L350.99 245.298L351.042 245.402L350.362 247.197L350.258 247.25L350.31 247.354L350.415 247.302L351.565 247.738L351.617 247.842L351.181 248.993H351.147Z" fill="#ACA0E4"/>
<path d="M343.302 266.545L343.198 266.58L335.894 262.868L335.86 262.763L335.738 262.798L335.772 262.902L334.587 265.238L334.483 265.273L333.384 264.715L333.35 264.611L336.435 258.545L336.539 258.51L337.638 259.068L337.672 259.172L336.487 261.508L336.383 261.543L336.417 261.647L336.522 261.613L341.35 264.07L341.385 264.175L341.49 264.14L341.455 264.035L342.326 262.327L342.431 262.292L343.529 262.85L343.564 262.955L342.692 264.663L342.588 264.698L342.623 264.802L342.727 264.767L343.825 265.325L343.86 265.43L343.302 266.528V266.545Z" fill="#ACA0E4"/>
<path d="M330.736 272.001L330.614 272.036L329.551 271.426L329.516 271.304L331.52 267.835L331.642 267.801L332.706 268.411L332.741 268.533L330.736 272.001ZM336.07 276.708L335.948 276.742L330.056 273.326L330.021 273.204L330.631 272.141L330.753 272.106L334.222 274.11L334.257 274.232L334.379 274.198L334.344 274.076L334.954 273.012L335.076 272.977L336.139 273.587L336.174 273.709L335.564 274.773L335.442 274.808L335.477 274.93L335.599 274.895L336.662 275.505L336.697 275.627L336.087 276.69L336.07 276.708ZM338.876 271.879L338.754 271.914L335.285 269.91L335.251 269.788L335.129 269.822L335.163 269.944L334.553 271.008L334.431 271.043L333.368 270.433L333.333 270.311L333.943 269.247L334.065 269.212L334.03 269.09L333.908 269.125L332.845 268.515L332.81 268.393L333.42 267.33L333.542 267.295L339.434 270.711L339.469 270.833L338.859 271.897L338.876 271.879ZM335.059 272.89L334.937 272.925L333.874 272.315L333.839 272.193L334.449 271.13L334.571 271.095L335.634 271.705L335.669 271.827L335.059 272.89ZM337.987 276.202L337.865 276.237L336.802 275.627L336.767 275.505L338.772 272.036L338.894 272.001L339.957 272.611L339.992 272.733L337.987 276.202Z" fill="#ACA0E4"/>
<path d="M333.613 283.174H333.491L326.623 278.712V278.59L326.484 278.607V278.729L325.072 280.926H324.95L323.921 280.281V280.159L327.617 274.459H327.739L328.767 275.104V275.226L327.355 277.422H327.233L327.251 277.562H327.373L331.904 280.49V280.612L332.044 280.595V280.473L333.072 278.869H333.194L334.223 279.514V279.636L333.194 281.239H333.072L333.09 281.379H333.212L334.24 282.024V282.146L333.595 283.174H333.613Z" fill="#ACA0E4"/>
<path d="M328.104 291.07H327.982L321.376 286.242V286.12L321.236 286.137V286.259L319.702 288.369H319.58L318.587 287.654V287.532L322.596 282.041H322.718L323.711 282.756V282.878L322.178 284.987H322.056L322.073 285.126H322.195L326.553 288.299V288.421L326.692 288.403V288.281L327.808 286.73H327.93L328.923 287.445V287.567L327.808 289.118H327.686L327.703 289.258H327.825L328.819 289.972V290.094L328.104 291.088V291.07Z" fill="#ACA0E4"/>
<path d="M315.886 305.904H315.764L309.698 300.396V300.274H309.576V300.396L307.815 302.33H307.693L306.787 301.511V301.389L311.371 296.352H311.493L312.4 297.171V297.293L310.639 299.228H310.517V299.35H310.639L314.631 302.993V303.115H314.753V302.993L316.042 301.564H316.165L317.071 302.383V302.505L315.781 303.934H315.659V304.056H315.781L316.687 304.875V304.997L315.868 305.904H315.886Z" fill="#ACA0E4"/>
<path d="M306.246 313.765H306.124L301.348 308.919V308.797L302.22 307.943H302.342L305.165 310.801V310.923H305.287V310.801L306.159 309.947H306.281L307.153 310.819V310.941L306.281 311.795H306.159V311.917H306.281L307.153 312.789V312.911L306.281 313.782L306.246 313.765ZM302.342 307.821H302.22L301.366 306.949V306.827L304.224 304.004H304.346L305.2 304.875V304.997L302.342 307.821ZM306.281 309.825H306.159L305.305 308.954V308.832L306.176 307.978H306.298L307.153 308.849V308.971L306.281 309.843V309.825ZM310.22 309.86H310.098L307.275 307.002V306.88H307.153V307.002L306.281 307.856H306.159L305.305 306.984V306.862L306.176 306.008H306.298V305.886H306.176L305.305 305.015V304.892L306.176 304.021H306.298L311.074 308.867V308.989L310.203 309.843L310.22 309.86ZM308.216 313.782H308.094L307.24 312.911V312.789L310.098 309.965H310.22L311.092 310.836V310.958L308.233 313.782H308.216Z" fill="#ACA0E4"/>
<path d="M302.15 319.36H302.028L296.59 313.225V313.103H296.485V313.225L294.516 314.968H294.394L293.574 314.044V313.922L298.664 309.407H298.786L299.605 310.331V310.453L297.636 312.196H297.514V312.301H297.636L301.226 316.362V316.484H301.331V316.362L302.778 315.09H302.9L303.719 316.013V316.135L302.272 317.408H302.15V317.512H302.272L303.092 318.436V318.558L302.168 319.377L302.15 319.36Z" fill="#ACA0E4"/>
<path d="M291.692 326.175H291.57L287.334 320.842V320.72L288.31 319.953H288.432L290.925 323.108V323.23H291.03V323.108L292.006 322.341H292.128L292.895 323.317V323.439L291.918 324.206H291.796V324.31H291.918L292.685 325.286V325.408L291.709 326.175H291.692ZM288.45 319.848H288.328L287.561 318.872V318.75L290.716 316.257H290.838L291.605 317.233V317.355L288.45 319.848ZM292.145 322.271H292.023L291.256 321.295V321.173L292.232 320.406H292.354L293.121 321.382V321.504L292.145 322.271ZM296.067 322.707H295.945L293.452 319.552V319.43H293.348V319.552L292.372 320.319H292.25L291.483 319.343V319.221L292.459 318.454H292.581V318.349H292.459L291.692 317.373V317.251L292.668 316.484H292.79L297.026 321.818V321.94L296.049 322.707H296.067ZM293.662 326.402H293.539L292.773 325.426V325.304L295.927 322.811H296.049L296.816 323.787V323.909L293.662 326.402Z" fill="#ACA0E4"/>
<path d="M283.987 331.753H283.865L279.926 326.193V326.071L280.937 325.356H281.059L283.377 328.65V328.772L283.482 328.79V328.668L284.493 327.953H284.615L285.33 328.964V329.086L284.319 329.801H284.197L284.179 329.905H284.301L285.016 330.916V331.038L284.005 331.753H283.987ZM281.076 325.269H280.954L280.24 324.258V324.136L283.534 321.818H283.656L284.371 322.829V322.951L281.076 325.286V325.269ZM284.632 327.866H284.51L283.796 326.855V326.733L284.807 326.018H284.929L285.643 327.029V327.151L284.632 327.866ZM288.537 328.528H288.415L286.079 325.234V325.112L285.974 325.095V325.217L284.963 325.931H284.841L284.127 324.92V324.798L285.138 324.084H285.26L285.277 323.979H285.155L284.441 322.968V322.846L285.452 322.131H285.574L289.513 327.692V327.814L288.502 328.528H288.537ZM285.922 332.084H285.8L285.085 331.073V330.951L288.38 328.633H288.502L289.217 329.644V329.766L285.922 332.102V332.084Z" fill="#ACA0E4"/>
<path d="M275.968 336.912H275.846L272.203 331.143V331.021L273.266 330.359H273.388L275.532 333.775V333.897L275.619 333.914L275.654 333.792L276.683 333.13H276.805L277.467 334.193V334.315L276.404 334.978H276.282L276.264 335.065H276.386L277.049 336.128V336.25L275.985 336.912H275.968ZM273.423 330.289H273.301L272.639 329.226L272.674 329.104L276.073 326.96H276.195L276.857 328.023V328.145L273.441 330.289H273.423ZM276.84 333.078H276.718L276.055 332.014V331.892L277.118 331.23H277.24L277.903 332.293V332.415L276.84 333.078ZM280.692 333.932H280.57L278.426 330.515V330.393L278.339 330.376V330.498L277.275 331.16H277.153L276.491 330.097L276.526 329.975L277.554 329.313H277.676L277.711 329.226H277.589L276.927 328.162V328.04L277.99 327.378H278.112L281.755 333.147L281.72 333.269L280.692 333.932ZM277.903 337.348H277.781L277.118 336.285L277.153 336.163L280.552 334.019L280.674 334.054L281.337 335.082V335.204L277.92 337.348H277.903Z" fill="#ACA0E4"/>
<path d="M270.757 341.532L270.635 341.497L266.626 334.35L266.661 334.228L266.539 334.193L266.504 334.315L264.221 335.605L264.116 335.57L263.524 334.507L263.558 334.385L269.502 331.056L269.624 331.091L270.217 332.154L270.182 332.276L267.899 333.566L267.777 333.531L267.742 333.653L267.846 333.688L270.496 338.411L270.461 338.533L270.583 338.568L270.618 338.446L272.291 337.505L272.413 337.54L273.006 338.603L272.971 338.725L271.298 339.666L271.176 339.632L271.141 339.754L271.263 339.788L271.855 340.852L271.821 340.974L270.757 341.566V341.532Z" fill="#ACA0E4"/>
<path d="M253.483 349.951L253.379 349.898L250.154 342.351L250.206 342.246L250.102 342.194L250.05 342.299L247.644 343.327L247.54 343.275L247.052 342.142L247.104 342.037L253.361 339.37L253.466 339.423L253.954 340.556L253.902 340.66L251.496 341.689L251.392 341.636L251.339 341.741L251.444 341.793L253.571 346.761L253.518 346.865L253.623 346.918L253.675 346.813L255.453 346.064L255.558 346.116L256.046 347.249L255.993 347.353L254.215 348.103L254.111 348.051L254.059 348.155L254.163 348.208L254.651 349.341L254.599 349.445L253.466 349.933L253.483 349.951Z" fill="#ACA0E4"/>
<path d="M241.404 353.106L241.299 353.053L238.981 346.656L239.033 346.552L240.184 346.133L240.288 346.186L241.665 349.968L241.613 350.073L241.717 350.125L241.77 350.02L242.92 349.602L243.025 349.654L243.443 350.805L243.391 350.909L242.24 351.328L242.136 351.275L242.083 351.38L242.188 351.432L242.606 352.583L242.554 352.687L241.404 353.106ZM240.34 346.064L240.236 346.011L239.817 344.861L239.87 344.756L243.652 343.379L243.757 343.432L244.175 344.582L244.123 344.687L240.34 346.064ZM243.077 349.532L242.972 349.48L242.554 348.33L242.606 348.225L243.757 347.807L243.861 347.859L244.28 349.009L244.227 349.114L243.077 349.532ZM243.199 353.925L243.094 353.872L242.676 352.722L242.728 352.617L246.511 351.24L246.615 351.293L247.034 352.443L246.981 352.548L243.199 353.925ZM246.65 351.188L246.546 351.136L245.169 347.353L245.221 347.249L245.116 347.197L245.064 347.301L243.914 347.719L243.809 347.667L243.391 346.517L243.443 346.412L244.593 345.994L244.698 346.046L244.75 345.942L244.646 345.889L244.227 344.739L244.28 344.634L245.43 344.216L245.535 344.268L247.853 350.665L247.801 350.77L246.65 351.188Z" fill="#ACA0E4"/>
<path d="M235.374 356.47L235.269 356.417L232.881 348.573L232.933 348.469L232.829 348.417L232.777 348.521L230.267 349.288L230.162 349.236L229.796 348.068L229.848 347.963L236.367 345.994L236.472 346.046L236.838 347.214L236.786 347.318L234.276 348.085L234.171 348.033L234.119 348.138L234.223 348.19L235.792 353.367L235.74 353.471L235.844 353.524L235.897 353.419L237.744 352.861L237.849 352.914L238.215 354.082L238.163 354.186L236.315 354.744L236.21 354.692L236.158 354.796L236.263 354.848L236.611 356.016L236.559 356.121L235.391 356.47H235.374Z" fill="#ACA0E4"/>
<path d="M223.05 358.3L222.945 358.23L221.324 351.624L221.394 351.519L222.579 351.223L222.684 351.293L223.642 355.197L223.573 355.302L223.677 355.371L223.747 355.267L224.932 354.97L225.037 355.04L225.333 356.225L225.263 356.33L224.078 356.626L223.973 356.557L223.904 356.661L224.008 356.731L224.305 357.916L224.235 358.021L223.05 358.317V358.3ZM222.736 351.188L222.631 351.118L222.335 349.933L222.405 349.828L226.309 348.87L226.414 348.939L226.71 350.125L226.64 350.229L222.736 351.188ZM224.74 359.311L224.636 359.241L224.339 358.056L224.409 357.951L228.314 356.992L228.418 357.062L228.715 358.247L228.645 358.352L224.74 359.311ZM225.089 354.918L224.984 354.848L224.688 353.663L224.758 353.559L225.943 353.262L226.048 353.332L226.344 354.517L226.274 354.622L225.089 354.918ZM228.47 356.958L228.366 356.888L227.407 352.983L227.477 352.879L227.372 352.809L227.303 352.914L226.117 353.21L226.013 353.14L225.716 351.955L225.786 351.85L226.971 351.554L227.076 351.624L227.146 351.519L227.041 351.449L226.745 350.264L226.815 350.16L228 349.863L228.104 349.933L229.725 356.539L229.656 356.644L228.47 356.94V356.958Z" fill="#ACA0E4"/>
<path d="M216.687 360.984L216.582 360.914L215.066 352.861L215.136 352.757L215.031 352.687L214.961 352.792L212.382 353.28L212.277 353.21L212.051 352.007L212.12 351.903L218.814 350.63L218.918 350.7L219.145 351.903L219.075 352.007L216.495 352.495L216.391 352.426L216.321 352.53L216.426 352.6L217.437 357.916L217.367 358.021L217.471 358.091L217.541 357.986L219.424 357.62L219.528 357.69L219.755 358.892L219.685 358.997L217.803 359.363L217.698 359.293L217.628 359.398L217.733 359.468L217.959 360.67L217.89 360.775L216.687 361.001V360.984Z" fill="#ACA0E4"/>
</g>
</g>
</g>
<defs>
<linearGradient id="paint0_linear_2186_2591" x1="184" y1="268" x2="184" y2="197" gradientUnits="userSpaceOnUse">
<stop stop-color="#D9D9D9"/>
<stop offset="1" stop-color="#737373" stop-opacity="0"/>
</linearGradient>
<radialGradient id="paint1_radial_2186_2591" cx="0" cy="0" r="1" gradientUnits="userSpaceOnUse" gradientTransform="translate(76 292) rotate(-45) scale(152.735)">
<stop stop-color="#D9D9D9"/>
<stop offset="1" stop-color="#737373" stop-opacity="0"/>
</radialGradient>
<radialGradient id="paint2_radial_2186_2591" cx="0" cy="0" r="1" gradientUnits="userSpaceOnUse" gradientTransform="translate(292 292) rotate(-135) scale(152.735)">
<stop stop-color="#D9D9D9"/>
<stop offset="1" stop-color="#737373" stop-opacity="0"/>
</radialGradient>
<clipPath id="clip0_2186_2591">
<rect width="368" height="368" fill="white" transform="matrix(1 0 0 -1 0 368)"/>
</clipPath>
</defs>
</svg>
