<svg width="352" height="145" viewBox="0 0 352 145" fill="none" xmlns="http://www.w3.org/2000/svg">
<g style="mix-blend-mode:overlay" clip-path="url(#clip0_2186_2534)">
<mask id="mask0_2186_2534" style="mask-type:alpha" maskUnits="userSpaceOnUse" x="-8" y="-7" width="368" height="184">
<path d="M360 177C360 152.837 355.241 128.91 345.994 106.586C336.747 84.2623 323.194 63.9783 306.108 46.8923C289.022 29.8064 268.738 16.253 246.414 7.00616C224.09 -2.2407 200.163 -7 176 -7C151.837 -7 127.91 -2.2407 105.586 7.00617C83.2623 16.253 62.9783 29.8064 45.8923 46.8924C28.8064 63.9783 15.253 84.2624 6.00616 106.586C-3.2407 128.91 -8 152.837 -8 177L176 177H360Z" fill="url(#paint0_linear_2186_2534)"/>
</mask>
<g mask="url(#mask0_2186_2534)">
<mask id="mask1_2186_2534" style="mask-type:alpha" maskUnits="userSpaceOnUse" x="-8" y="-7" width="368" height="184">
<path d="M360 177C360 152.837 355.241 128.91 345.994 106.586C336.747 84.2623 323.194 63.9783 306.108 46.8923C289.022 29.8064 268.738 16.253 246.414 7.00616C224.09 -2.2407 200.163 -7 176 -7C151.837 -7 127.91 -2.2407 105.586 7.00617C83.2623 16.253 62.9783 29.8064 45.8923 46.8924C28.8064 63.9783 15.253 84.2624 6.00616 106.586C-3.2407 128.91 -8 152.837 -8 177L176 177H360Z" fill="url(#paint1_radial_2186_2534)"/>
</mask>
<g mask="url(#mask1_2186_2534)">
<path d="M1.71791 136.092L1.82249 136.022L3.0252 136.301L3.09492 136.405L2.18854 140.31L2.08395 140.379L0.881246 140.101L0.811523 139.996L1.71791 136.092ZM2.11881 140.484L2.2234 140.414L6.12784 141.321L6.19756 141.425L6.30214 141.356L6.23242 141.251L6.51131 140.048L6.61589 139.979L7.8186 140.257L7.88832 140.362L7.60943 141.565L7.50485 141.634L7.57457 141.739L7.67915 141.669L8.88186 141.948L8.95158 142.053L8.6727 143.255L8.56811 143.325L1.94451 141.791L1.87479 141.687L2.15367 140.484H2.11881ZM3.39124 135.063L3.49583 134.993L10.1194 136.527L10.1892 136.632L9.91026 137.835L9.80568 137.904L5.90124 136.998L5.83152 136.893L5.72693 136.963L5.79666 137.068L5.51777 138.27L5.41319 138.34L4.21048 138.061L4.14076 137.957L4.41964 136.754L4.52423 136.684L4.45451 136.58L4.34992 136.649L3.14722 136.37L3.07749 136.266L3.35638 135.063H3.39124ZM5.48291 138.41L5.58749 138.34L6.7902 138.619L6.85992 138.724L6.58103 139.926L6.47645 139.996L5.27374 139.717L5.20402 139.613L5.48291 138.41ZM9.85797 137.991L9.96255 137.922L11.1653 138.201L11.235 138.305L10.3286 142.21L10.224 142.279L9.02131 142L8.95158 141.896L9.85797 137.991Z" fill="white"/>
<path d="M3.86109 128.143L3.96567 128.091L11.8443 130.374L11.8966 130.479L12.0011 130.427L11.9489 130.322L12.6809 127.812L12.7855 127.76L13.9708 128.108L14.0231 128.213L12.1232 134.749L12.0186 134.802L10.8333 134.453L10.781 134.348L11.5131 131.838L11.6177 131.786L11.5654 131.682L11.4608 131.734L6.2665 130.217L6.21421 130.113L6.10963 130.165L6.16192 130.27L5.62157 132.117L5.51699 132.17L4.33171 131.821L4.27942 131.716L4.81977 129.869L4.92435 129.816L4.87206 129.712L4.76748 129.764L3.5822 129.416L3.52991 129.311L3.87852 128.126L3.86109 128.143Z" fill="white"/>
<path d="M7.29591 117.702L7.4005 117.65L8.55091 118.051L8.6032 118.155L7.27848 121.938L7.1739 121.99L6.02348 121.589L5.97119 121.485L7.29591 117.702ZM7.22619 122.095L7.33077 122.042L11.1132 123.367L11.1655 123.472L11.2701 123.419L11.2178 123.315L11.6187 122.147L11.7233 122.095L12.8911 122.496L12.9434 122.6L12.5425 123.751L12.4379 123.803L12.4902 123.907L12.5948 123.855L13.7452 124.256L13.7975 124.361L13.3966 125.511L13.292 125.563L6.87758 123.315L6.82529 123.21L7.22619 122.042V122.095ZM9.07383 116.831L9.17841 116.778L15.5928 119.027L15.6451 119.131L15.2442 120.282L15.1397 120.334L11.3572 119.009L11.3049 118.905L11.2004 118.957L11.2526 119.062L10.8517 120.212L10.7472 120.264L9.57931 119.864L9.52702 119.759L9.92792 118.591L10.0325 118.539L9.98022 118.434L9.87563 118.487L8.72522 118.086L8.67292 117.981L9.07383 116.831ZM10.782 120.386L10.8866 120.334L12.037 120.735L12.0893 120.84L11.6884 121.99L11.5838 122.042L10.4334 121.641L10.3811 121.537L10.782 120.369V120.386ZM15.1919 120.456L15.2965 120.404L16.4469 120.805L16.4992 120.909L15.1745 124.692L15.0699 124.744L13.9195 124.343L13.8672 124.239L15.1919 120.456Z" fill="white"/>
<path d="M10.8153 108.708L10.9198 108.656L12.0528 109.126L12.1051 109.231L10.5712 112.944L10.4666 112.996L9.33366 112.525L9.28137 112.421L10.8153 108.708ZM10.5189 113.118L10.6235 113.066L14.3362 114.6L14.3885 114.704L14.4931 114.652L14.4408 114.547L14.9114 113.414L15.016 113.362L16.149 113.833L16.2013 113.937L15.7307 115.07L15.6261 115.123L15.6784 115.227L15.783 115.175L16.9159 115.645L16.9682 115.75L16.4976 116.883L16.393 116.935L10.1006 114.338L10.0483 114.234L10.5189 113.101V113.118ZM12.6455 107.959L12.75 107.906L19.0425 110.503L19.0948 110.608L18.6241 111.741L18.5196 111.793L14.8069 110.259L14.7546 110.155L14.65 110.207L14.7023 110.312L14.2316 111.445L14.1271 111.497L12.9941 111.026L12.9418 110.922L13.4124 109.789L13.517 109.737L13.4647 109.632L13.3601 109.684L12.2271 109.214L12.1748 109.109L12.6455 107.976V107.959ZM14.1619 111.602L14.2665 111.549L15.3995 112.02L15.4518 112.125L14.9812 113.257L14.8766 113.31L13.7436 112.839L13.6913 112.735L14.1619 111.602ZM18.5544 111.898L18.659 111.846L19.792 112.316L19.8443 112.421L18.3104 116.134L18.2058 116.186L17.0728 115.715L17.0205 115.611L18.5544 111.898Z" fill="white"/>
<path d="M14.8249 99.9755L14.9294 99.9406L16.045 100.464L16.0799 100.568L14.3542 104.194L14.2497 104.229L13.1341 103.706L13.0992 103.601L14.8249 99.9755ZM14.2845 104.351L14.3891 104.316L18.0147 106.041L18.0495 106.146L18.1541 106.111L18.1192 106.006L18.6422 104.891L18.7467 104.856L19.8623 105.379L19.8972 105.484L19.3742 106.599L19.2697 106.634L19.3045 106.739L19.4091 106.704L20.5247 107.227L20.5595 107.331L20.0366 108.447L19.932 108.482L13.7965 105.553L13.7616 105.449L14.2845 104.333V104.351ZM16.6725 99.3131L16.7771 99.2783L22.9126 102.207L22.9475 102.311L22.4246 103.427L22.32 103.462L18.6944 101.736L18.6596 101.631L18.555 101.666L18.5899 101.771L18.0669 102.886L17.9624 102.921L16.8468 102.398L16.8119 102.294L17.3349 101.178L17.4394 101.143L17.4046 101.039L17.3 101.074L16.1844 100.551L16.1496 100.446L16.6725 99.3305V99.3131ZM17.9972 103.043L18.1018 103.008L19.2174 103.531L19.2522 103.636L18.7293 104.751L18.6247 104.786L17.5092 104.263L17.4743 104.159L17.9972 103.043ZM22.3723 103.584L22.4769 103.549L23.5924 104.072L23.6273 104.176L21.9017 107.802L21.7971 107.837L20.6815 107.314L20.6467 107.209L22.3723 103.584Z" fill="white"/>
<path d="M23.4696 84.3751L23.5916 84.3402L30.5638 88.6456L30.5987 88.7676L30.7207 88.7327L30.6858 88.6107L32.0628 86.3796L32.1849 86.3447L33.2307 86.9897L33.2655 87.1117L29.6923 92.8986L29.5703 92.9335L28.5244 92.2885L28.4896 92.1665L29.8666 89.9354L29.9886 89.9005L29.9537 89.7785L29.8317 89.8134L25.2301 86.9722L25.1952 86.8502L25.0732 86.8851L25.1081 87.0071L24.0971 88.6456L23.9751 88.6804L22.9292 88.0355L22.8944 87.9135L23.9053 86.275L24.0274 86.2401L23.9925 86.1181L23.8705 86.153L22.8247 85.5081L22.7898 85.386L23.4347 84.3402L23.4696 84.3751Z" fill="white"/>
<path d="M28.7868 76.3222H28.9088L35.6544 80.9762V81.0982L35.7938 81.0808V80.9587L37.258 78.7973H37.38L38.391 79.4771V79.5992L34.5388 85.1944H34.4168L33.4059 84.5146V84.3925L34.87 82.2312H34.992L34.9746 82.0917H34.8526L30.4078 79.0239V78.9019L30.2684 78.9194V79.0414L29.1877 80.6276H29.0657L28.0547 79.9478V79.8258L29.1354 78.2396H29.2574L29.24 78.1001H29.1179L28.107 77.4203V77.2983L28.7868 76.2874V76.3222Z" fill="white"/>
<path d="M35.3586 67.485H35.4806L36.4567 68.2171V68.3391L34.0165 71.5114H33.8944L32.9183 70.7793V70.6573L35.3586 67.485ZM33.8944 71.6509H34.0165L37.1888 74.0911V74.2132H37.3283V74.0911L38.0603 73.115H38.1824L39.1585 73.8471V73.9691L38.4264 74.9452H38.3044V75.0847H38.4264L39.4025 75.8168V75.9388L38.6704 76.9149H38.5484L33.1798 72.7664V72.6444L33.9119 71.6683L33.8944 71.6509ZM37.3108 67.2409H37.4328L42.8014 71.3894V71.5114L42.0694 72.4875H41.9474L38.775 70.0473V69.9252H38.6356V70.0473L37.9035 71.0234H37.7815L36.8053 70.2913V70.1693L37.5374 69.1932H37.6594V69.0537H37.5374L36.5613 68.3216V68.1996L37.2934 67.2235L37.3108 67.2409ZM37.7989 71.1454H37.9209L38.897 71.8775V71.9995L38.1649 72.9756H38.0429L37.0668 72.2435V72.1215L37.7989 71.1454ZM41.9648 72.6095H42.0868L43.0629 73.3416V73.4636L40.6226 76.636H40.5006L39.5245 75.9039V75.7819L41.9648 72.6095Z" fill="white"/>
<path d="M40.6231 61.1751H40.7452L46.9504 66.5262V66.6482H47.0724V66.5262L48.7806 64.5392H48.9027L49.8265 65.341V65.463L45.3817 70.605H45.2597L44.3358 69.8032V69.6812L46.044 67.6941H46.1661V67.5721H46.044L41.9479 64.0337V63.9117H41.8259V64.0337L40.5709 65.4804H40.4488L39.525 64.6786V64.5566L40.78 63.1099H40.902V62.9878H40.78L39.8562 62.186V62.064L40.658 61.1402L40.6231 61.1751Z" fill="white"/>
<path d="M48.0823 53.1047H48.2044L49.0933 53.9588V54.0808L46.3044 56.9743H46.1824L45.2935 56.1202V55.9982L48.0823 53.1047ZM46.1824 57.0789H46.3044L49.1979 59.8678V59.9898H49.3199V59.8678L50.174 58.9788H50.296L51.185 59.8329V59.9549L50.3309 60.8439H50.2089V60.9659H50.3309L51.2198 61.82V61.942L50.3657 62.831H50.2437L45.3457 58.1073V57.9853L46.1998 57.0963L46.1824 57.0789ZM50.052 53.0699H50.174L55.072 57.7935V57.9156L54.2179 58.8045H54.0959L51.2024 56.0156V55.8936H51.0804V56.0156L50.2263 56.9046H50.1043L49.2153 56.0505V55.9285L50.0694 55.0395H50.1914V54.9175H50.0694L49.1805 54.0634V53.9414L50.0346 53.0524L50.052 53.0699ZM50.1217 57.0092H50.2437L51.1327 57.8633V57.9853L50.2786 58.8742H50.1566L49.2676 58.0201V57.8981L50.1217 57.0092ZM54.1133 58.9091H54.2353L55.1243 59.7632V59.8852L52.3354 62.7787H52.2134L51.3244 61.9246V61.8026L54.1133 58.9091Z" fill="white"/>
<path d="M53.9742 47.3874H54.0963L59.6915 53.3835V53.5056H59.8135V53.3835L61.7308 51.5882H61.8528L62.6895 52.4946V52.6166L57.7044 57.2531H57.5824L56.7457 56.3467V56.2247L58.6631 54.4294H58.7851V54.3074H58.6631L54.9678 50.3506V50.2286H54.8458V50.3506L53.4339 51.6579H53.3119L52.4752 50.7515V50.6295L53.8871 49.3222H54.0091V49.2002H53.8871L53.0504 48.2938V48.1718L53.9568 47.3351L53.9742 47.3874Z" fill="white"/>
<path d="M68.7895 35.0641H68.9115L73.827 41.6354V41.7574H73.9315V41.6354L76.0406 40.0666H76.1627L76.8947 41.0602V41.1822L71.439 45.261H71.317L70.5849 44.2674V44.1454L72.694 42.5766H72.816V42.4721H72.694L69.4519 38.1319V38.0098H69.3473V38.1319L67.796 39.2823H67.674L66.9419 38.2887V38.1667L68.4932 37.0163H68.6152V36.9117H68.4932L67.7611 35.9182V35.7962L68.7547 35.0641H68.7895Z" fill="white"/>
<path d="M75.0991 32.2403H75.2211L77.4522 35.6044V35.7264L77.5393 35.7439V35.6218L78.5852 34.9421H78.7072L79.387 35.9879V36.1099L78.3411 36.7897H78.2191L78.2017 36.8768H78.3237L79.0035 37.9227V38.0447L77.9577 38.7245H77.8356L74.0532 33.0421V32.9201L75.0991 32.2403ZM77.8008 28.7542H77.9228L78.6026 29.8V29.9221L75.2385 32.1532H75.1165L74.4367 31.1073V30.9853L77.8008 28.7542ZM78.9686 33.0073H79.0906L79.7704 34.0531V34.1751L78.7246 34.8549H78.6026L77.9228 33.8091V33.6871L78.9686 33.0073ZM79.7356 29.1377H79.8576L83.64 34.82V34.9421L82.5942 35.6218H82.4722L80.2411 32.2577V32.1357L80.1539 32.1183V32.2403L79.1081 32.9201H78.9861L78.3063 31.8743V31.7523L79.3521 31.0725H79.4741L79.4915 30.9853H79.3695L78.6897 29.9395V29.8175L79.7356 29.1377ZM82.4547 35.709H82.5768L83.2565 36.7548V36.8768L79.8925 39.108H79.7704L79.0906 38.0621V37.9401L82.4547 35.709Z" fill="white"/>
<path d="M83.1008 27.0459L83.2228 27.0808L85.2796 30.532L85.2448 30.6541L85.3668 30.6889L85.4016 30.5669L86.4475 29.9394L86.5695 29.9743L87.197 31.0201L87.1621 31.1421L86.1163 31.7696L85.9943 31.7348L85.9594 31.8568L86.0814 31.8916L86.7089 32.9375L86.6741 33.0595L85.6108 33.687L85.4888 33.6521L82.0027 27.8129L82.0375 27.6909L83.0834 27.0634L83.1008 27.0459ZM85.9768 23.6993L86.0989 23.7341L86.7264 24.78L86.6915 24.902L83.2403 26.9588L83.1182 26.9239L82.4907 25.8781L82.5256 25.7561L85.9768 23.6993ZM86.9181 28.0221L87.0401 28.0569L87.6676 29.1027L87.6327 29.2248L86.5869 29.8523L86.4649 29.8174L85.8374 28.7716L85.8723 28.6496L86.9181 28.0221ZM87.8942 24.1873L88.0162 24.2222L91.5023 30.0614L91.4675 30.1834L90.4216 30.8109L90.2996 30.7761L88.2428 27.3248L88.2777 27.2028L88.1557 27.168L88.1208 27.29L87.075 27.9175L86.953 27.8826L86.3255 26.8368L86.3603 26.7148L87.4061 26.0873L87.5282 26.1221L87.563 26.0001L87.441 25.9652L86.8135 24.9194L86.8484 24.7974L87.8942 24.1699V24.1873ZM90.2648 30.8981L90.3868 30.933L91.0143 31.9788L90.9794 32.1008L87.5282 34.1576L87.4061 34.1227L86.7786 33.0769L86.8135 32.9549L90.2648 30.8981Z" fill="white"/>
<path d="M91.3631 22.2874L91.4852 22.3223L93.3502 25.8781L93.3154 25.9827L93.4199 26.0175L93.4548 25.913L94.5355 25.3378L94.6575 25.3726L95.2327 26.4533L95.1979 26.5579L94.1172 27.1331L93.9951 27.0982L93.9603 27.2028L94.0649 27.2377L94.6401 28.3184L94.6052 28.423L93.5245 28.9982L93.4199 28.9633L90.265 22.9323L90.2999 22.8278L91.3806 22.2525L91.3631 22.2874ZM94.4135 19.1151L94.5181 19.1499L95.0933 20.2306L95.0584 20.3352L91.5026 22.2003L91.398 22.1654L90.8228 21.0847L90.8577 20.9801L94.4135 19.1151ZM95.1281 23.4553L95.2501 23.4901L95.8254 24.5708L95.7905 24.6754L94.7098 25.2506L94.6052 25.2157L94.03 24.135L94.0649 24.0305L95.1456 23.4553H95.1281ZM96.296 19.6903L96.4006 19.7251L99.5555 25.7561L99.5206 25.8607L98.4399 26.4359L98.3179 26.401L96.4529 22.8452L96.4877 22.7406L96.3657 22.7057L96.3308 22.8103L95.2501 23.3855L95.1456 23.3507L94.5704 22.27L94.6052 22.1654L95.6859 21.5902L95.7905 21.625L95.8254 21.5205L95.7208 21.4856L95.1456 20.4049L95.1804 20.3003L96.2611 19.7251L96.296 19.6903ZM98.3179 26.523L98.4225 26.5579L98.9977 27.6386L98.9629 27.7432L95.407 29.6082L95.3024 29.5734L94.7272 28.4927L94.7621 28.3881L98.3179 26.523Z" fill="white"/>
<path d="M101.855 15.5418L101.96 15.5767L105.376 23.0369L105.341 23.1415L105.446 23.1764L105.481 23.0718L107.869 21.9737L107.973 22.0085L108.479 23.1241L108.444 23.2287L102.256 26.0524L102.151 26.0176L101.646 24.902L101.681 24.7974L104.069 23.6993L104.173 23.7342L104.208 23.6296L104.104 23.5947L101.855 18.6793L101.89 18.5747L101.785 18.5399L101.75 18.6444L100.007 19.4462L99.9028 19.4114L99.3973 18.2958L99.4322 18.1912L101.175 17.3894L101.28 17.4243L101.315 17.3197L101.21 17.2849L100.705 16.1693L100.739 16.0647L101.855 15.5592V15.5418Z" fill="white"/>
<path d="M110.728 11.7943L110.832 11.8466L113.83 19.4812L113.778 19.5858L113.883 19.6381L113.935 19.5335L116.375 18.5748L116.48 18.6271L116.933 19.7601L116.881 19.8646L110.553 22.3572L110.449 22.3049L109.996 21.1719L110.048 21.0674L112.488 20.1087L112.593 20.161L112.645 20.0564L112.54 20.0041L110.553 14.9667L110.606 14.8621L110.501 14.8098L110.449 14.9144L108.653 15.6116L108.549 15.5593L108.096 14.4089L108.148 14.3043L109.943 13.6071L110.048 13.6594L110.1 13.5548L109.996 13.5025L109.542 12.3521L109.595 12.2475L110.745 11.7943H110.728Z" fill="white"/>
<path d="M129.014 5.79819L129.118 5.85048L131.28 13.7639L131.227 13.8685L131.332 13.9208L131.384 13.8162L133.912 13.119L134.016 13.1713L134.347 14.3566L134.295 14.4612L127.724 16.2565L127.619 16.2042L127.288 15.0189L127.34 14.9144L129.868 14.2171L129.972 14.2694L130.025 14.1649L129.92 14.1126L128.491 8.90083L128.543 8.79624L128.438 8.74395L128.386 8.84854L126.521 9.35402L126.417 9.30173L126.085 8.11645L126.138 8.01187L128.003 7.50639L128.107 7.55868L128.16 7.45409L128.055 7.4018L127.724 6.21653L127.776 6.11194L128.961 5.78076L129.014 5.79819Z" fill="white"/>
<path d="M135.916 5.48438L136.021 5.5541L136.875 9.47597L136.805 9.58055L136.91 9.65028L136.979 9.54569L138.182 9.28424L138.287 9.35396L138.548 10.5567L138.478 10.6612L137.276 10.9227L137.171 10.853L137.101 10.9576L137.206 11.0273L137.467 12.23L137.398 12.3346L136.195 12.596L136.09 12.5263L134.644 5.86785L134.713 5.76327L135.916 5.50181V5.48438ZM139.716 3.23584L139.82 3.30556L140.082 4.50827L140.012 4.61285L136.09 5.46695L135.986 5.39723L135.724 4.19452L135.794 4.08994L139.716 3.23584ZM141.476 11.4282L141.581 11.4979L141.842 12.7006L141.773 12.8052L137.851 13.6593L137.746 13.5896L137.485 12.3869L137.554 12.2823L141.476 11.4282ZM139.228 7.62833L139.332 7.69806L139.594 8.90076L139.524 9.00535L138.321 9.26681L138.217 9.19708L137.955 7.99438L138.025 7.88979L139.228 7.62833ZM141.372 4.31653L141.476 4.38626L142.923 11.0447L142.853 11.1493L141.651 11.4108L141.546 11.341L140.692 7.41917L140.762 7.31459L140.657 7.24486L140.587 7.34945L139.385 7.61091L139.28 7.54118L139.019 6.33848L139.088 6.23389L140.291 5.97243L140.396 6.04216L140.465 5.93757L140.361 5.86785L140.099 4.66514L140.169 4.56056L141.372 4.2991V4.31653Z" fill="white"/>
<path d="M145.275 3.60193L145.38 3.67166L146.008 7.62839L145.938 7.71554L146.025 7.78526L146.095 7.68068L147.315 7.48894L147.402 7.55867L147.594 8.7788L147.524 8.86596L146.304 9.05769L146.217 8.98797L146.147 9.09255L146.252 9.16227L146.443 10.3824L146.374 10.487L145.153 10.6787L145.066 10.609L143.986 3.89825L144.055 3.79367L145.258 3.60193H145.275ZM149.18 1.56256L149.267 1.63228L149.459 2.85242L149.389 2.93957L145.415 3.5845L145.328 3.51478L145.136 2.31207L145.206 2.20749L149.162 1.57999L149.18 1.56256ZM150.505 9.82464L150.592 9.89436L150.783 11.0971L150.714 11.2016L146.74 11.8291L146.652 11.7594L146.461 10.5393L146.53 10.4521L150.505 9.8072V9.82464ZM148.465 5.9202L148.552 5.98992L148.744 7.21005L148.674 7.29721L147.472 7.48894L147.367 7.41922L147.175 6.19908L147.245 6.11193L148.465 5.9202ZM150.783 2.73041L150.871 2.80013L151.951 9.51089L151.882 9.59804L150.661 9.78977L150.574 9.72005L149.929 5.76332L149.999 5.67617L149.895 5.60645L149.825 5.71103L148.622 5.90276L148.518 5.83304L148.326 4.6129L148.396 4.52575L149.616 4.33402L149.703 4.40374L149.773 4.29916L149.668 4.22943L149.476 3.0093L149.546 2.90471L150.766 2.71298L150.783 2.73041Z" fill="white"/>
<path d="M157.354 0.551636L157.441 0.621358L158.313 8.77885L158.243 8.866L158.33 8.93572L158.4 8.84857L161.014 8.56968L161.102 8.6394L161.224 9.85954L161.154 9.94669L154.391 10.6613L154.304 10.5916L154.182 9.37149L154.251 9.28434L156.866 9.00545L156.953 9.07517L157.023 8.98802L156.936 8.91829L156.361 3.53226L156.43 3.44511L156.343 3.37538L156.273 3.46254L154.356 3.6717L154.269 3.60198L154.147 2.38184L154.217 2.29469L156.134 2.08552L156.221 2.15525L156.291 2.06809L156.204 1.99837L156.082 0.778233L156.151 0.69108L157.372 0.569066L157.354 0.551636Z" fill="white"/>
<path d="M164.241 1.37076L164.328 1.45791L164.537 5.46694L164.467 5.55409L164.555 5.64124L164.642 5.55409L165.862 5.48437L165.949 5.57152L166.019 6.79166L165.932 6.87881L164.711 6.94853L164.624 6.86138L164.537 6.94853L164.624 7.03569L164.694 8.25582L164.624 8.34298L163.404 8.4127L163.317 8.32554L162.968 1.52764L163.056 1.44048L164.276 1.37076H164.241ZM168.337 -0.232849L168.424 -0.145696L168.494 1.07444L168.407 1.16159L164.398 1.37076L164.311 1.28361L164.241 0.06347L164.328 -0.0236827L168.337 -0.232849ZM168.773 8.11638L168.86 8.20353L168.93 9.42367L168.86 9.51082L164.851 9.71999L164.764 9.63284L164.694 8.4127L164.764 8.32554L168.773 8.11638ZM167.169 4.00277L167.256 4.08992L167.326 5.31006L167.256 5.39721L166.036 5.46694L165.949 5.37978L165.879 4.15965L165.949 4.07249L167.169 4.00277ZM169.801 1.07444L169.888 1.16159L170.237 7.9595L170.15 8.04666L168.93 8.11638L168.842 8.02923L168.633 4.0202L168.72 3.93305L168.633 3.8459L168.546 3.93305L167.326 4.00277L167.239 3.91562L167.169 2.69548L167.256 2.60833L168.476 2.53861L168.564 2.62576L168.651 2.53861L168.564 2.45145L168.494 1.23132L168.564 1.14416L169.784 1.07444H169.801Z" fill="white"/>
<path d="M176.755 -0.372218L176.842 -0.285065L176.703 7.90729L176.616 7.99444L176.703 8.08159L176.79 7.99444L179.404 8.0293L179.492 8.11645V9.33659L179.387 9.42374L172.589 9.31916L172.502 9.23201V8.01187L172.607 7.92472L175.221 7.95958L175.308 8.04673L175.395 7.95958L175.308 7.87243L175.395 2.46896L175.483 2.38181L175.395 2.29465L175.308 2.38181L173.391 2.34695L173.304 2.25979V1.03966L173.408 0.952503L175.326 0.987364L175.413 1.07452L175.5 0.987364L175.413 0.900211V-0.302496L175.517 -0.389648H176.738L176.755 -0.372218Z" fill="white"/>
<path d="M183.326 1.16168L183.396 1.24883L183.187 5.25786L183.1 5.34501L183.169 5.43216L183.256 5.34501L184.477 5.41473L184.546 5.50188L184.477 6.72202L184.389 6.80918L183.169 6.73945L183.082 6.6523L182.995 6.73945L183.065 6.82661L182.995 8.04674L182.908 8.1339L181.688 8.06417L181.601 7.97702L181.967 1.17911L182.054 1.09196L183.274 1.16168H183.326ZM187.143 8.34306L187.213 8.43021L187.143 9.65035L187.056 9.7375L183.047 9.52834L182.96 9.44119L183.03 8.22105L183.117 8.1339L187.126 8.34306H187.143ZM187.579 -0.00616558L187.649 0.0809872L187.579 1.30112L187.492 1.38828L183.483 1.17911L183.413 1.09196L183.483 -0.128179L183.57 -0.215332L187.579 -0.00616558ZM185.976 4.09001L186.045 4.17716L185.976 5.3973L185.888 5.48445L184.668 5.41473L184.581 5.32758L184.651 4.10744L184.738 4.03772L185.958 4.10744L185.976 4.09001ZM188.904 1.458L188.974 1.54515L188.608 8.34306L188.521 8.41278L187.3 8.34306L187.213 8.25591L187.422 4.24689L187.51 4.15973L187.422 4.07258L187.335 4.15973L186.115 4.09001L186.028 4.00286L186.098 2.78272L186.185 2.713L187.405 2.78272L187.475 2.86987L187.562 2.78272L187.492 2.69557L187.562 1.47543L187.649 1.38828L188.869 1.458H188.904Z" fill="white"/>
<path d="M195.771 0.725774L195.841 0.812926L194.97 8.97042L194.882 9.04014L194.952 9.12729L195.039 9.05757L197.654 9.33646L197.724 9.42361L197.584 10.6437L197.497 10.7135L190.734 9.98139L190.664 9.89424L190.804 8.6741L190.891 8.60438L193.505 8.88326L193.575 8.97042L193.662 8.90069L193.593 8.81354L194.168 3.42751L194.255 3.35778L194.185 3.27063L194.098 3.34035L192.181 3.13119L192.111 3.04403L192.25 1.8239L192.338 1.75418L194.255 1.96334L194.325 2.05049L194.412 1.98077L194.342 1.89362L194.482 0.673482L194.569 0.60376L195.789 0.743204L195.771 0.725774Z" fill="white"/>
<path d="M205.272 2.03325L205.341 2.13784L204.034 10.2256L203.947 10.2953L204.017 10.3999L204.104 10.3302L206.684 10.7485L206.753 10.8531L206.562 12.0558L206.457 12.1255L199.746 11.0448L199.677 10.9577L199.868 9.73755L199.955 9.66783L202.535 10.0862L202.605 10.1907L202.692 10.121L202.622 10.0164L203.494 4.6827L203.598 4.61297L203.529 4.50839L203.442 4.57811L201.542 4.26436L201.472 4.15978L201.664 2.95707L201.768 2.88735L203.668 3.2011L203.738 3.30568L203.842 3.23596L203.773 3.13138L203.964 1.92867L204.069 1.85895L205.272 2.05068V2.03325Z" fill="white"/>
<path d="M211.721 4.63032L211.791 4.73491L210.936 8.65678L210.832 8.7265L210.902 8.83108L211.006 8.76136L212.209 9.02282L212.279 9.1274L212.017 10.3301L211.913 10.3998L210.71 10.1384L210.64 10.0338L210.536 10.1035L210.605 10.2081L210.344 11.4108L210.239 11.4805L209.037 11.2191L208.967 11.1145L210.414 4.47345L210.518 4.40373L211.721 4.66519V4.63032ZM214.318 12.3346L214.388 12.4392L214.126 13.6419L214.022 13.7116L210.1 12.8575L210.03 12.753L210.292 11.5502L210.396 11.4805L214.318 12.3346ZM216.113 4.1597L216.183 4.26428L215.922 5.46699L215.817 5.53671L211.895 4.68262L211.825 4.57803L212.087 3.37533L212.191 3.3056L216.113 4.1597ZM213.865 7.95956L213.934 8.06414L213.673 9.26685L213.568 9.33657L212.366 9.07511L212.296 8.97053L212.557 7.76782L212.662 7.6981L213.865 7.95956ZM217.177 5.8156L217.246 5.92018L215.8 12.5612L215.695 12.6309L214.492 12.3695L214.423 12.2649L215.277 8.34303L215.381 8.27331L215.312 8.16872L215.207 8.23845L214.004 7.97699L213.934 7.8724L214.196 6.6697L214.301 6.59998L215.503 6.86143L215.573 6.96602L215.678 6.89629L215.608 6.79171L215.869 5.589L215.974 5.51928L217.177 5.78074V5.8156Z" fill="white"/>
<path d="M230.179 9.4761L230.232 9.58069L228.959 13.398L228.855 13.4503L228.907 13.5548L229.011 13.5026L230.179 13.886L230.232 13.9906L229.848 15.1585L229.743 15.2108L228.576 14.8273L228.523 14.7227L228.419 14.775L228.471 14.8796L228.088 16.0474L227.983 16.0997L226.815 15.7162L226.763 15.6117L228.924 9.16235L229.029 9.11006L230.197 9.49353L230.179 9.4761ZM231.922 17.407L231.975 17.5116L231.591 18.6794L231.487 18.7317L227.669 17.4593L227.617 17.3547L228 16.1869L228.105 16.1346L231.905 17.407H231.922ZM231.94 12.9971L231.992 13.1017L231.609 14.2695L231.504 14.3218L230.336 13.9383L230.284 13.8337L230.667 12.6659L230.772 12.6136L231.94 12.9971ZM234.589 9.4761L234.641 9.58069L234.258 10.7485L234.153 10.8008L230.336 9.5284L230.284 9.42381L230.667 8.25597L230.772 8.20367L234.589 9.4761ZM235.461 11.2366L235.513 11.3412L233.352 17.7905L233.247 17.8428L232.079 17.4593L232.027 17.3547L233.299 13.5374L233.404 13.4851L233.352 13.3805L233.247 13.4328L232.079 13.0494L232.027 12.9448L232.41 11.7769L232.515 11.7246L233.683 12.1081L233.735 12.2127L233.84 12.1604L233.787 12.0558L234.171 10.888L234.275 10.8357L235.443 11.2192L235.461 11.2366Z" fill="white"/>
<path d="M242.259 12.3521L242.311 12.4567L239.295 20.0739L239.191 20.1261L239.243 20.2307L239.348 20.1784L241.788 21.1371L241.84 21.2417L241.387 22.3747L241.283 22.427L234.955 19.917L234.903 19.8124L235.356 18.6794L235.461 18.6271L237.901 19.5858L237.953 19.6904L238.058 19.6381L238.006 19.5335L239.993 14.4961L240.097 14.4438L240.045 14.3392L239.94 14.3915L238.145 13.6768L238.093 13.5723L238.546 12.4393L238.651 12.387L240.446 13.1016L240.498 13.2062L240.603 13.1539L240.55 13.0494L241.004 11.9164L241.108 11.8641L242.259 12.3173V12.3521Z" fill="white"/>
<path d="M248.012 16.274L248.047 16.3785L246.373 20.0215L246.269 20.0564L246.303 20.161L246.408 20.1261L247.524 20.6316L247.558 20.7362L247.053 21.8517L246.948 21.8866L245.833 21.3811L245.798 21.2765L245.693 21.3114L245.728 21.416L245.223 22.5315L245.118 22.5664L244.003 22.0609L243.968 21.9563L246.809 15.7685L246.914 15.7336L248.029 16.2391L248.012 16.274ZM248.901 24.3617L248.935 24.4663L248.43 25.5819L248.325 25.6167L244.682 23.9434L244.648 23.8388L245.153 22.7233L245.258 22.6884L248.901 24.3617ZM249.371 19.9692L249.406 20.0738L248.901 21.1894L248.796 21.2242L247.68 20.7187L247.646 20.6142L248.151 19.4986L248.256 19.4637L249.371 19.9692ZM252.387 16.762L252.422 16.8666L251.916 17.9822L251.812 18.017L248.169 16.3437L248.134 16.2391L248.639 15.1235L248.744 15.0887L252.387 16.762ZM253.084 18.6097L253.119 18.7142L250.278 24.9021L250.173 24.9369L249.057 24.4315L249.023 24.3269L250.696 20.6839L250.801 20.649L250.766 20.5444L250.661 20.5793L249.546 20.0738L249.511 19.9692L250.016 18.8537L250.121 18.8188L251.236 19.3243L251.271 19.4289L251.376 19.394L251.341 19.2894L251.846 18.1739L251.951 18.139L253.067 18.6445L253.084 18.6097Z" fill="white"/>
<path d="M264.987 24.9544L265.022 25.0764L262.965 28.5276L262.843 28.5625L262.878 28.6845L263 28.6496L264.046 29.2771L264.081 29.3991L263.454 30.445L263.332 30.4798L262.286 29.8523L262.251 29.7303L262.129 29.7652L262.164 29.8872L261.536 30.933L261.414 30.9679L260.368 30.3404L260.333 30.2184L263.82 24.3792L263.942 24.3443L264.987 24.9718V24.9544ZM265.005 33.077L265.04 33.199L264.412 34.2448L264.29 34.2797L260.839 32.2229L260.804 32.1009L261.432 31.055L261.554 31.0202L265.005 33.077ZM265.946 28.7716L265.981 28.8937L265.353 29.9395L265.231 29.9744L264.186 29.3469L264.151 29.2248L264.778 28.179L264.9 28.1442L265.946 28.7716ZM269.293 25.8956L269.328 26.0176L268.7 27.0635L268.578 27.0983L265.127 25.0415L265.092 24.9195L265.72 23.8737L265.842 23.8388L269.293 25.8956ZM269.781 27.813L269.816 27.935L266.33 33.7742L266.208 33.8091L265.162 33.1816L265.127 33.0596L267.184 29.6083L267.306 29.5735L267.271 29.4514L267.149 29.4863L266.103 28.8588L266.068 28.7368L266.696 27.691L266.818 27.6561L267.863 28.2836L267.898 28.4056L268.02 28.3707L267.986 28.2487L268.613 27.2029L268.735 27.168L269.781 27.7955V27.813Z" fill="white"/>
<path d="M273.129 29.9918V30.1138L270.915 33.443H270.793L270.811 33.5824H270.933L271.944 34.2448V34.3668L271.281 35.3778H271.159L270.148 34.7154V34.5934L270.009 34.6108V34.7329L269.346 35.7438H269.224L268.214 35.0815V34.9595L271.996 29.312H272.118L273.129 29.9743V29.9918ZM272.711 38.097V38.219L272.048 39.2299H271.926L268.597 37.0163V36.8942L269.259 35.8833H269.381L272.711 38.097ZM273.896 33.8613V33.9833L273.233 34.9943H273.111L272.101 34.332V34.2099L272.763 33.199H272.885L273.896 33.8613ZM277.765 33.0944V33.2164L273.983 38.8639H273.861L272.85 38.2015V38.0795L275.064 34.7503H275.186L275.168 34.6108H275.046L274.035 33.9485V33.8265L274.698 32.8155H274.82L275.831 33.4779V33.5999L275.97 33.5824V33.4604L276.632 32.4495H276.754L277.765 33.1118V33.0944ZM277.382 31.1596V31.2816L276.72 32.2926H276.598L273.268 30.0789V29.9569L273.931 28.9459H274.053L277.382 31.1596Z" fill="white"/>
<path d="M284.039 36.0054V36.1274L279.124 42.6813H279.002V42.8207H279.124L281.215 44.3895V44.5115L280.501 45.4876H280.379L274.94 41.4088V41.2868L275.655 40.3107H275.777L277.869 41.8795V42.0015H278.008V41.8795L281.25 37.5567H281.372V37.4172H281.25L279.716 36.2668V36.1448L280.448 35.1687H280.571L282.104 36.3191V36.4411H282.244V36.3191L282.958 35.343H283.081L284.057 36.0577L284.039 36.0054Z" fill="white"/>
<path d="M298.698 48.4159V48.5379L293.103 54.5166H292.981V54.6386H293.103L295.021 56.434V56.556L294.184 57.4449H294.062L289.094 52.791V52.669L289.931 51.78H290.053L291.97 53.5753V53.6974H292.092V53.5753L295.788 49.6186H295.91V49.4966H295.788L294.376 48.1893V48.0673L295.212 47.1783H295.334L296.746 48.4856V48.6076H296.868V48.4856L297.705 47.5967H297.827L298.716 48.4333L298.698 48.4159Z" fill="white"/>
<path d="M300.442 61.9768V62.0988L299.553 62.9529H299.431L296.659 60.0595V59.9375L297.548 59.0834H297.67L300.442 61.9768ZM302.586 54.1331V54.2551L299.692 57.044H299.57V57.166H299.692L300.546 58.055V58.177L299.657 59.0311H299.535L298.681 58.1421V58.0201H298.559V58.1421L297.67 58.9962H297.548L296.694 58.1073V57.9852L301.61 53.279H301.732L302.586 54.1679V54.1331ZM306.438 58.1595V58.2816L301.523 62.9878H301.401L300.546 62.0988V61.9768L303.44 59.1879H303.562V59.0659H303.44L302.586 58.177V58.055L303.475 57.2009H303.597L304.451 58.0898V58.2118H304.573V58.0898L305.462 57.2357H305.584L306.438 58.1247V58.1595ZM302.499 58.0898V58.2118L301.61 59.0659H301.488L300.634 58.177V58.055L301.523 57.2009H301.645L302.499 58.0898ZM306.473 56.1899V56.3119L305.584 57.166H305.462L302.673 54.2725V54.1505L303.562 53.2964H303.684L306.473 56.1899Z" fill="white"/>
<path d="M306.543 68.8619V68.9839L305.601 69.7857H305.479L302.865 66.7354V66.6134L303.806 65.8115H303.928L306.543 68.8619ZM309.105 61.1402V61.2622L306.055 63.8768H305.933V63.9813H306.055L306.856 64.9226V65.0446L305.915 65.8464H305.793L304.991 64.9052V64.7831H304.887V64.9052L303.946 65.707H303.824L303.022 64.7657V64.6437L308.181 60.1989H308.303L309.105 61.1402ZM312.731 65.3584V65.4804L307.571 69.9252H307.449L306.647 68.9839V68.8619L309.698 66.2473H309.82V66.1427H309.698L308.896 65.2015V65.0795L309.837 64.2777H309.959L310.761 65.2189V65.3409H310.865V65.2189L311.807 64.4171H311.929L312.731 65.3584ZM308.809 65.062V65.184L307.867 65.9859H307.745L306.944 65.0446V64.9226L307.885 64.1208H308.007L308.809 65.062ZM312.887 63.3887V63.5107L311.946 64.3125H311.824L309.21 61.2622V61.1402L310.151 60.3384H310.273L312.887 63.3887Z" fill="white"/>
<path d="M318.047 69.8206V69.9426L311.545 74.9626H311.423V75.0672H311.545L313.149 77.1589V77.2809L312.155 78.0304H312.033L307.868 72.6269V72.5049L308.861 71.7554H308.983L310.587 73.8471V73.9691H310.691V73.8471L314.979 70.5353H315.101V70.4307H314.979L313.794 68.8968V68.7748L314.787 68.0253H314.909L316.077 69.5592V69.6812H316.182V69.5592L317.175 68.8096H317.297L318.047 69.8032V69.8206Z" fill="white"/>
<path d="M317.593 83.4862V83.6082L316.565 84.3054H316.443L314.159 80.9762V80.8542L315.188 80.157H315.31L317.593 83.4862ZM320.94 76.0782V76.2002L317.611 78.4836H317.489L317.471 78.5708H317.593L318.29 79.5992V79.7212L317.262 80.4184H317.14L316.443 79.39V79.268L316.356 79.2506V79.3726L315.327 80.0698H315.205L314.508 79.0414V78.9194L320.121 75.0498H320.243L320.94 76.0782ZM324.112 80.6799V80.8019L318.5 84.6715H318.378L317.68 83.6431V83.521L321.01 81.2377H321.132L321.149 81.1505H321.027L320.33 80.1221V80.0001L321.358 79.3029H321.48L322.177 80.3313V80.4533L322.265 80.4707V80.3487L323.293 79.6515H323.415L324.112 80.6799ZM320.243 79.9652V80.0872L319.214 80.7845H319.092L318.395 79.7561V79.634L319.423 78.9368H319.545L320.243 79.9652ZM324.478 78.7276V78.8497L323.45 79.5469H323.328L321.045 76.2177V76.0956L322.073 75.3984H322.195L324.478 78.7276Z" fill="white"/>
<path d="M333.699 94.0141L333.664 94.1187L326.465 98.0231L326.361 97.9882L326.326 98.0928L326.43 98.1277L327.685 100.429L327.65 100.533L326.57 101.126L326.465 101.091L323.223 95.1122L323.258 95.0076L324.339 94.415L324.443 94.4499L325.698 96.7507L325.663 96.8553L325.785 96.8901L325.82 96.7855L330.579 94.2058L330.701 94.2407L330.736 94.1361L330.614 94.1012L329.69 92.4105L329.725 92.3059L330.805 91.7133L330.927 91.7481L331.851 93.4389L331.816 93.5435L331.938 93.5783L331.973 93.4737L333.054 92.8811L333.176 92.916L333.769 93.9967L333.699 94.0141Z" fill="white"/>
<path d="M331.051 107.436L331.016 107.54L329.9 108.063L329.796 108.028L328.07 104.403L328.105 104.298L329.22 103.775L329.325 103.81L331.051 107.436ZM335.565 100.673L335.53 100.777L331.905 102.503L331.8 102.468L331.765 102.572L331.87 102.607L332.393 103.723L332.358 103.827L331.242 104.35L331.138 104.315L330.615 103.2L330.65 103.095L330.545 103.06L330.51 103.165L329.395 103.688L329.29 103.653L328.767 102.538L328.802 102.433L334.955 99.5221L335.06 99.557L335.583 100.673H335.565ZM337.953 105.71L337.918 105.815L331.765 108.743L331.661 108.708L331.138 107.592L331.173 107.488L334.798 105.762L334.903 105.797L334.938 105.693L334.833 105.658L334.31 104.542L334.345 104.438L335.46 103.915L335.565 103.949L336.088 105.048L336.053 105.152L336.158 105.187L336.193 105.082L337.308 104.56L337.413 104.594L337.936 105.693L337.953 105.71ZM334.24 104.385L334.205 104.49L333.09 105.013L332.985 104.978L332.462 103.88L332.497 103.775L333.613 103.252L333.717 103.287L334.24 104.403V104.385ZM338.615 103.845L338.581 103.949L337.465 104.472L337.36 104.438L335.635 100.812L335.67 100.707L336.785 100.184L336.89 100.219L338.615 103.845Z" fill="white"/>
<path d="M341.892 111.427L341.84 111.532L334.258 114.652L334.153 114.6L334.101 114.704L334.206 114.757L335.199 117.179L335.147 117.284L334.014 117.755L333.909 117.702L331.33 111.41L331.382 111.305L332.515 110.835L332.619 110.887L333.613 113.31L333.561 113.414L333.665 113.467L333.718 113.362L338.72 111.305L338.825 111.358L338.877 111.253L338.772 111.201L338.04 109.423L338.093 109.318L339.226 108.848L339.33 108.9L340.062 110.678L340.01 110.782L340.115 110.835L340.167 110.73L341.3 110.26L341.404 110.312L341.875 111.445L341.892 111.427Z" fill="white"/>
<path d="M337.814 124.5L337.761 124.605L336.594 125.006L336.489 124.953L335.164 121.153L335.217 121.049L336.384 120.648L336.489 120.7L337.814 124.5ZM343.025 118.26L342.973 118.365L339.173 119.689L339.069 119.637L339.016 119.742L339.121 119.794L339.522 120.962L339.47 121.066L338.319 121.467L338.215 121.415L337.814 120.247L337.866 120.142L337.761 120.09L337.709 120.195L336.559 120.596L336.454 120.543L336.053 119.375L336.106 119.271L342.537 117.04L342.642 117.092L343.043 118.26H343.025ZM344.856 123.524L344.803 123.629L338.372 125.86L338.267 125.807L337.866 124.657L337.918 124.552L341.718 123.228L341.823 123.28L341.875 123.175L341.77 123.123L341.37 121.973L341.422 121.868L342.59 121.467L342.694 121.519L343.095 122.687L343.043 122.792L343.147 122.844L343.2 122.74L344.368 122.339L344.472 122.391L344.873 123.559L344.856 123.524ZM341.317 121.798L341.265 121.903L340.097 122.304L339.993 122.252L339.592 121.084L339.644 120.979L340.812 120.578L340.916 120.63L341.317 121.798ZM345.727 121.746L345.675 121.851L344.507 122.252L344.402 122.199L343.078 118.399L343.13 118.295L344.28 117.894L344.385 117.946L345.71 121.746H345.727Z" fill="white"/>
<path d="M348.149 129.625L348.097 129.729L340.218 131.995L340.113 131.943L340.061 132.047L340.166 132.1L340.898 134.61L340.845 134.714L339.66 135.063L339.556 135.011L337.673 128.474L337.725 128.37L338.911 128.021L339.015 128.073L339.747 130.601L339.695 130.705L339.8 130.758L339.852 130.653L345.046 129.154L345.151 129.206L345.203 129.102L345.098 129.049L344.558 127.202L344.61 127.097L345.796 126.766L345.9 126.818L346.441 128.666L346.388 128.771L346.493 128.823L346.545 128.718L347.731 128.37L347.835 128.422L348.184 129.607L348.149 129.625Z" fill="white"/>
<path d="M342.694 142.192L342.624 142.297L341.421 142.576L341.317 142.506L340.41 138.584L340.48 138.479L341.683 138.2L341.787 138.27L342.694 142.192ZM348.55 136.545L348.481 136.649L344.559 137.556L344.454 137.486L344.385 137.59L344.489 137.66L344.768 138.863L344.698 138.967L343.496 139.246L343.391 139.177L343.112 137.974L343.182 137.869L343.077 137.8L343.008 137.904L341.805 138.183L341.7 138.113L341.421 136.911L341.491 136.806L348.115 135.272L348.219 135.342L348.498 136.545H348.55ZM349.805 141.983L349.736 142.087L343.112 143.621L343.008 143.552L342.729 142.349L342.798 142.244L346.72 141.338L346.825 141.408L346.895 141.303L346.79 141.233L346.511 140.031L346.581 139.926L347.784 139.647L347.888 139.717L348.167 140.92L348.097 141.024L348.202 141.094L348.272 140.989L349.474 140.71L349.579 140.78L349.858 141.983H349.805ZM346.459 139.891L346.389 139.996L345.186 140.275L345.082 140.205L344.803 139.002L344.873 138.898L346.075 138.619L346.18 138.689L346.459 139.891ZM350.851 140.31L350.782 140.414L349.579 140.693L349.474 140.623L348.568 136.701L348.638 136.597L349.84 136.318L349.945 136.388L350.851 140.31Z" fill="white"/>
</g>
</g>
</g>
<defs>
<linearGradient id="paint0_linear_2186_2534" x1="176" y1="93" x2="176" y2="145" gradientUnits="userSpaceOnUse">
<stop stop-color="#D9D9D9"/>
<stop offset="1" stop-color="#737373" stop-opacity="0"/>
</linearGradient>
<radialGradient id="paint1_radial_2186_2534" cx="0" cy="0" r="1" gradientUnits="userSpaceOnUse" gradientTransform="translate(176 5.00001) rotate(90) scale(172 1050)">
<stop stop-color="#D9D9D9"/>
<stop offset="1" stop-color="#737373" stop-opacity="0"/>
</radialGradient>
<clipPath id="clip0_2186_2534">
<rect width="352" height="145" fill="white"/>
</clipPath>
</defs>
</svg>
